<?xml version="1.0" encoding="UTF-8"?>
<!DOCTYPE svg PUBLIC "-//W3C//DTD SVG 1.1//EN" "http://www.w3.org/Graphics/SVG/1.1/DTD/svg11.dtd">
<svg xmlns="http://www.w3.org/2000/svg" version="1.1" width="2000px" height="2000px" style="shape-rendering:geometricPrecision; text-rendering:geometricPrecision; image-rendering:optimizeQuality; fill-rule:evenodd; clip-rule:evenodd" xmlns:xlink="http://www.w3.org/1999/xlink">
<g><path style="opacity:1" fill="#000000" d="M -0.5,-0.5 C 666.167,-0.5 1332.83,-0.5 1999.5,-0.5C 1999.5,666.167 1999.5,1332.83 1999.5,1999.5C 1332.83,1999.5 666.167,1999.5 -0.5,1999.5C -0.5,1332.83 -0.5,666.167 -0.5,-0.5 Z"/></g>
<g><path style="opacity:1" fill="#f33131" d="M 1749.5,193.5 C 1750.87,193.343 1752.21,193.51 1753.5,194C 1768.54,208.707 1783.21,223.707 1797.5,239C 1766.64,275.531 1736.14,312.364 1706,349.5C 1691.46,355.186 1676.96,361.019 1662.5,367C 1456.64,574.528 1251.14,782.361 1046,990.5C 1033.17,1003.33 1020.33,1016.17 1007.5,1029C 1006.17,1029.67 1004.83,1029.67 1003.5,1029C 989.333,1014.83 975.167,1000.67 961,986.5C 960.333,985.5 960.333,984.5 961,983.5C 1181.75,765.085 1402.41,546.752 1623,328.5C 1628.57,313.094 1634.91,298.094 1642,283.5C 1676.17,255.333 1710.33,227.167 1744.5,199C 1746.37,197.296 1748.04,195.463 1749.5,193.5 Z"/></g>
<g><path style="opacity:1" fill="#f33131" d="M 629.5,339.5 C 629.41,342.152 630.076,344.485 631.5,346.5C 634.422,371.141 637.256,395.807 640,420.5C 644.786,445.744 653.786,469.411 667,491.5C 687.096,527.271 711.43,559.938 740,589.5C 836.973,685.473 933.639,781.806 1030,878.5C 1030.67,879.5 1030.67,880.5 1030,881.5C 1020.5,891 1011,900.5 1001.5,910C 1000.5,910.667 999.5,910.667 998.5,910C 886.361,797.106 774.027,684.439 661.5,572C 638.667,552.535 614.334,550.535 588.5,566C 568.504,581.987 561.671,602.487 568,627.5C 570.442,635.72 574.442,643.053 580,649.5C 667.667,737.167 755.333,824.833 843,912.5C 843.483,913.448 843.649,914.448 843.5,915.5C 830.441,919.724 820.108,927.557 812.5,939C 811.5,939.667 810.5,939.667 809.5,939C 730.833,860.333 652.167,781.667 573.5,703C 554.983,689.211 534.316,679.877 511.5,675C 470.935,666.698 430.269,666.364 389.5,674C 378.5,674.667 367.5,674.667 356.5,674C 300.884,658.394 260.384,624.561 235,572.5C 224.036,547.968 215.536,522.635 209.5,496.5C 210.552,496.351 211.552,496.517 212.5,497C 241.86,527.359 271.526,557.359 301.5,587C 346.403,613.909 391.737,614.242 437.5,588C 509.206,540.22 550.706,473.387 562,387.5C 566.353,347.589 556.353,311.923 532,280.5C 520.767,268.259 507.6,258.759 492.5,252C 448.258,240.681 403.924,229.681 359.5,219C 359.043,218.586 358.709,218.086 358.5,217.5C 359.665,216.416 360.998,215.583 362.5,215C 409.117,202.505 456.45,199.172 504.5,205C 543.445,212.287 574.278,232.121 597,264.5C 613.33,287.156 624.164,312.156 629.5,339.5 Z"/></g>
<g><path style="opacity:1" fill="#f33131" d="M 321.5,228.5 C 326.179,228.334 330.845,228.501 335.5,229C 384.204,240.742 432.87,252.742 481.5,265C 507.822,274.655 526.322,292.488 537,318.5C 546.019,341.695 549.019,365.695 546,390.5C 535.979,457.385 505.479,512.885 454.5,557C 429.631,578.51 400.798,590.01 368,591.5C 346.946,591.451 327.78,585.618 310.5,574C 272.303,536.47 234.803,498.304 198,459.5C 197.333,454.167 197.333,448.833 198,443.5C 199.674,439.747 202.507,438.247 206.5,439C 248.363,463.095 290.03,487.428 331.5,512C 341.044,517.931 351.378,519.931 362.5,518C 385.518,514.783 405.851,505.783 423.5,491C 447.974,470.21 464.474,444.377 473,413.5C 479.653,385.598 477.153,358.598 465.5,332.5C 415.768,302.64 366.102,272.807 316.5,243C 313.809,240.689 312.643,237.856 313,234.5C 315.364,231.682 318.197,229.682 321.5,228.5 Z"/></g>
<g><path style="opacity:1" fill="#991f1f" d="M 629.5,339.5 C 630.924,341.515 631.59,343.848 631.5,346.5C 630.076,344.485 629.41,342.152 629.5,339.5 Z"/></g>
<g><path style="opacity:1" fill="#f43131" d="M 612.5,571.5 C 625.002,569.959 636.335,572.792 646.5,580C 760.333,693.833 874.167,807.667 988,921.5C 988.667,922.167 988.667,922.833 988,923.5C 973.473,938.027 958.973,952.527 944.5,967C 943.5,967.667 942.5,967.667 941.5,967C 927.167,952.667 912.833,938.333 898.5,924C 888.714,916.799 877.714,912.799 865.5,912C 773.333,819.833 681.167,727.667 589,635.5C 576.565,614.305 579.398,595.471 597.5,579C 602.152,575.628 607.152,573.128 612.5,571.5 Z"/></g>
<g><path style="opacity:1" fill="#f33131" d="M 855.5,935.5 C 866.73,934.305 876.73,937.138 885.5,944C 939.333,997.833 993.167,1051.67 1047,1105.5C 1054.59,1115.73 1056.59,1127.07 1053,1139.5C 1043.6,1159.75 1028.1,1166.92 1006.5,1161C 1001.15,1158.49 996.482,1154.99 992.5,1150.5C 810.473,1353.03 628.973,1556.03 448,1759.5C 412.487,1798.12 368.32,1815.29 315.5,1811C 251.615,1800.79 208.449,1765.29 186,1704.5C 168.882,1641.12 184.049,1586.96 231.5,1542C 432.167,1363 632.833,1184 833.5,1005C 835.888,1002.95 837.888,1000.62 839.5,998C 825.401,982.643 823.901,966.143 835,948.5C 840.742,942.225 847.575,937.892 855.5,935.5 Z"/></g>
<g><path style="opacity:1" fill="#f33131" d="M 1522.5,1744.5 C 1523.12,1749.39 1521.46,1750.56 1517.5,1748C 1517.83,1747.67 1518.17,1747.33 1518.5,1747C 1516.26,1744.65 1515.09,1745.15 1515,1748.5C 1514.67,1747.83 1514.33,1747.17 1514,1746.5C 1513.28,1747.45 1512.45,1747.62 1511.5,1747C 1512.7,1746.35 1512.7,1745.85 1511.5,1745.5C 1510.33,1746.49 1509.17,1747.49 1508,1748.5C 1506.24,1748.06 1506.4,1747.56 1508.5,1747C 1507.33,1746.5 1506.5,1745.67 1506,1744.5C 1505.33,1751.47 1504.83,1751.8 1504.5,1745.5C 1502,1745.98 1499.66,1746.98 1497.5,1748.5C 1494.73,1747.53 1492.23,1746.2 1490,1744.5C 1487.62,1744.54 1485.12,1745.21 1482.5,1746.5C 1482.17,1746.33 1481.83,1746.17 1481.5,1746C 1482.33,1745.09 1483.33,1744.42 1484.5,1744C 1480.96,1743.95 1477.8,1745.12 1475,1747.5C 1473.86,1744.08 1472.19,1743.75 1470,1746.5C 1468.51,1745.75 1468.35,1744.91 1469.5,1744C 1467.77,1742.15 1466.6,1742.31 1466,1744.5C 1465.33,1743.17 1464.67,1743.17 1464,1744.5C 1463.67,1743.5 1463.33,1742.5 1463,1741.5C 1461.43,1742.61 1460.1,1743.95 1459,1745.5C 1458.68,1743.43 1457.84,1743.1 1456.5,1744.5C 1454.26,1743.81 1451.92,1742.81 1449.5,1741.5C 1447.61,1742.6 1446.94,1743.93 1447.5,1745.5C 1446.17,1744.41 1445.34,1743.07 1445,1741.5C 1443.86,1741.62 1442.69,1741.95 1441.5,1742.5C 1428.29,1724.45 1418.79,1704.45 1413,1682.5C 1404.82,1651.41 1397.48,1620.08 1391,1588.5C 1379.99,1537.15 1357.33,1491.82 1323,1452.5C 1231.79,1361.63 1140.96,1270.46 1050.5,1179C 1061.98,1171.02 1070.31,1160.52 1075.5,1147.5C 1076.5,1146.17 1077.5,1146.17 1078.5,1147.5C 1176.32,1245.82 1274.32,1343.99 1372.5,1442C 1397.26,1462 1422.6,1462.66 1448.5,1444C 1465.98,1426.3 1471.14,1405.47 1464,1381.5C 1460.67,1374.18 1456.34,1367.52 1451,1361.5C 1327.16,1238.66 1203.5,1115.33 1080,991.5C 1079.33,990.833 1079.33,990.167 1080,989.5C 1090.1,979.236 1100.26,969.236 1110.5,959.5C 1231.29,1079.79 1351.96,1200.29 1472.5,1321C 1510.11,1357.36 1554.77,1370.19 1606.5,1359.5C 1644.08,1359.98 1679.41,1369.15 1712.5,1387C 1727.48,1395.31 1739.98,1406.48 1750,1420.5C 1771.08,1447.99 1785.74,1478.66 1794,1512.5C 1794.82,1515.23 1794.65,1517.89 1793.5,1520.5C 1768.38,1493.54 1742.38,1467.38 1715.5,1442C 1687.56,1423.51 1657.23,1418.51 1624.5,1427C 1589.84,1437.91 1561.01,1457.41 1538,1485.5C 1495.58,1536.41 1475.25,1595.08 1477,1661.5C 1480.73,1695.64 1495.89,1723.3 1522.5,1744.5 Z"/></g>
<g><path style="opacity:1" fill="#f43131" d="M 1066.5,1002.5 C 1067.55,1002.35 1068.55,1002.52 1069.5,1003C 1194.33,1127.83 1319.17,1252.67 1444,1377.5C 1456.26,1398.61 1453.43,1417.44 1435.5,1434C 1419.43,1443.89 1403.43,1443.89 1387.5,1434C 1284.67,1331.17 1181.83,1228.33 1079,1125.5C 1077.96,1113.38 1073.96,1102.38 1067,1092.5C 1051.84,1077.85 1037.34,1062.85 1023.5,1047.5C 1037.46,1032.2 1051.8,1017.2 1066.5,1002.5 Z"/></g>
<g><path style="opacity:1" fill="#030000" d="M 838.5,1049.5 C 853.521,1048.02 860.354,1054.69 859,1069.5C 858.384,1072.79 856.884,1075.62 854.5,1078C 660.199,1259.3 466.199,1440.97 272.5,1623C 255.719,1628.22 247.552,1622.05 248,1604.5C 250.325,1599.16 253.825,1594.66 258.5,1591C 449.167,1412.33 639.833,1233.67 830.5,1055C 833.091,1052.88 835.758,1051.05 838.5,1049.5 Z"/></g>
<g><path style="opacity:1" fill="#020000" d="M 880.5,1089.5 C 898.075,1090.32 903.908,1098.99 898,1115.5C 709.5,1304 521,1492.5 332.5,1681C 320.731,1687.69 312.231,1684.86 307,1672.5C 305.959,1667.56 306.626,1662.89 309,1658.5C 497.5,1470 686,1281.5 874.5,1093C 876.432,1091.54 878.432,1090.37 880.5,1089.5 Z"/></g>
<g><path style="opacity:1" fill="#030000" d="M 919.5,1130.5 C 936.053,1129.55 942.887,1137.22 940,1153.5C 938,1156.17 936,1158.83 934,1161.5C 755,1352.5 576,1543.5 397,1734.5C 389.896,1742.89 381.396,1744.72 371.5,1740C 365.885,1735.03 364.052,1728.86 366,1721.5C 368.95,1716.88 372.284,1712.55 376,1708.5C 554.367,1518.8 732.367,1328.8 910,1138.5C 913.145,1135.7 916.312,1133.03 919.5,1130.5 Z"/></g>
<g><path style="opacity:1" fill="#f33131" d="M 1610.5,1707.5 C 1610.54,1708.58 1610.87,1709.58 1611.5,1710.5C 1610.97,1711.19 1610.31,1711.69 1609.5,1712C 1611.42,1713.27 1613.09,1713.27 1614.5,1712C 1612.07,1710.91 1612.4,1710.41 1615.5,1710.5C 1615.52,1714.27 1613.85,1715.27 1610.5,1713.5C 1610.26,1714.25 1609.93,1715.08 1609.5,1716C 1606.13,1717.23 1602.79,1717.39 1599.5,1716.5C 1599.54,1718.36 1598.71,1719.69 1597,1720.5C 1594.9,1719 1593.73,1717.33 1593.5,1715.5C 1592.07,1717.22 1591.23,1719.22 1591,1721.5C 1590.78,1718.06 1589.78,1717.72 1588,1720.5C 1586,1719.83 1584.67,1718.5 1584,1716.5C 1583.67,1717.17 1583.33,1717.83 1583,1718.5C 1582.51,1717.21 1582.34,1715.87 1582.5,1714.5C 1583.55,1714.65 1584.55,1714.48 1585.5,1714C 1584.13,1713.6 1582.79,1713.1 1581.5,1712.5C 1580.25,1714.01 1580.25,1715.51 1581.5,1717C 1580.83,1717.67 1580.17,1718.33 1579.5,1719C 1582,1719.83 1582.17,1721 1580,1722.5C 1579.69,1721.69 1579.19,1721.03 1578.5,1720.5C 1577.67,1721.5 1576.83,1722.5 1576,1723.5C 1575.38,1722.55 1575.55,1721.72 1576.5,1721C 1574.72,1721.98 1573.05,1721.65 1571.5,1720C 1571.83,1719 1572.17,1718 1572.5,1717C 1572,1716.5 1571.5,1716 1571,1715.5C 1568.89,1716.95 1567.55,1718.95 1567,1721.5C 1565.91,1720.71 1564.75,1720.04 1563.5,1719.5C 1562.17,1720.5 1560.83,1721.5 1559.5,1722.5C 1559.94,1720.4 1558.94,1718.74 1556.5,1717.5C 1556.22,1719.66 1554.72,1721.32 1552,1722.5C 1551.32,1721.22 1551.48,1720.05 1552.5,1719C 1550.6,1718.8 1549.1,1717.97 1548,1716.5C 1546.26,1717.72 1545.26,1719.38 1545,1721.5C 1542.27,1720.64 1542.1,1719.81 1544.5,1719C 1543.15,1718.23 1542.32,1717.06 1542,1715.5C 1541.33,1718.17 1540.67,1718.17 1540,1715.5C 1539.17,1718 1538,1718.17 1536.5,1716C 1537.96,1715.19 1538.29,1714.36 1537.5,1713.5C 1535.57,1714.15 1534.4,1715.48 1534,1717.5C 1533.67,1716.83 1533.33,1716.17 1533,1715.5C 1532.71,1717.04 1532.04,1718.38 1531,1719.5C 1530,1718.17 1529,1718.17 1528,1719.5C 1524.23,1717.93 1523.73,1715.76 1526.5,1713C 1525.12,1711.07 1523.62,1709.24 1522,1707.5C 1521.4,1709.69 1520.23,1709.85 1518.5,1708C 1521.43,1706.73 1524.1,1705.06 1526.5,1703C 1525.5,1702.5 1524.5,1702 1523.5,1701.5C 1523.26,1702.25 1522.93,1703.08 1522.5,1704C 1520.9,1704.27 1519.4,1704.77 1518,1705.5C 1517.67,1704.5 1517.33,1703.5 1517,1702.5C 1516.61,1703.43 1515.95,1704.09 1515,1704.5C 1512.9,1703.96 1512.06,1702.96 1512.5,1701.5C 1511.83,1702.5 1511.17,1703.5 1510.5,1704.5C 1509.48,1703.15 1508.14,1702.48 1506.5,1702.5C 1497.64,1687.09 1492.81,1670.42 1492,1652.5C 1493.44,1574.45 1524.61,1511.29 1585.5,1463C 1606.02,1448.08 1629.02,1439.92 1654.5,1438.5C 1673.69,1438.56 1691.02,1444.06 1706.5,1455C 1737.34,1485.17 1767.5,1516 1797,1547.5C 1799.67,1551.85 1801.51,1556.51 1802.5,1561.5C 1800.94,1566.56 1797.61,1568.39 1792.5,1567C 1750.34,1545.92 1708.34,1524.92 1666.5,1504C 1632.02,1507.43 1604.52,1523.27 1584,1551.5C 1559.83,1587.7 1553.83,1626.7 1566,1668.5C 1569.87,1678.76 1576.03,1687.26 1584.5,1694C 1593.29,1698.23 1601.96,1702.73 1610.5,1707.5 Z"/></g>
<g><path style="opacity:1" fill="#ee3030" d="M 1610.5,1707.5 C 1633.54,1718.85 1656.54,1730.52 1679.5,1742.5C 1678.22,1744.46 1676.89,1746.46 1675.5,1748.5C 1674.52,1748.02 1673.69,1747.36 1673,1746.5C 1673.44,1751.42 1672.1,1752.09 1669,1748.5C 1667.42,1747.99 1666.09,1748.65 1665,1750.5C 1663.17,1749.99 1663.01,1749.16 1664.5,1748C 1663.26,1747.54 1662.42,1748.04 1662,1749.5C 1661.09,1747.39 1659.59,1746.55 1657.5,1747C 1659.93,1747.45 1660.1,1748.28 1658,1749.5C 1657.28,1748.55 1656.45,1748.38 1655.5,1749C 1656.7,1749.65 1656.7,1750.15 1655.5,1750.5C 1654.72,1749.27 1654.22,1747.94 1654,1746.5C 1653.44,1747.02 1652.77,1747.36 1652,1747.5C 1651.6,1751.82 1649.93,1752.15 1647,1748.5C 1645.67,1752.5 1644.33,1752.5 1643,1748.5C 1642.33,1751.17 1641.67,1751.17 1641,1748.5C 1640.26,1749.64 1639.43,1749.64 1638.5,1748.5C 1637.8,1750.38 1636.8,1750.72 1635.5,1749.5C 1635.7,1750.53 1635.2,1751.53 1634,1752.5C 1631.94,1751.89 1631.11,1750.89 1631.5,1749.5C 1628.42,1752.51 1625.25,1752.18 1622,1748.5C 1620.69,1749.31 1619.52,1750.31 1618.5,1751.5C 1617.89,1750.02 1617.55,1748.69 1617.5,1747.5C 1616.35,1749.15 1615.02,1750.65 1613.5,1752C 1612.55,1752.62 1611.72,1752.45 1611,1751.5C 1609.54,1753.52 1607.71,1753.69 1605.5,1752C 1606.17,1751.67 1606.83,1751.33 1607.5,1751C 1605.67,1750.73 1604.17,1749.89 1603,1748.5C 1602.67,1749.17 1602.33,1749.83 1602,1750.5C 1601.75,1749.38 1601.25,1748.38 1600.5,1747.5C 1599.3,1747.85 1599.3,1748.35 1600.5,1749C 1597.46,1749.36 1597.12,1750.03 1599.5,1751C 1598.91,1751.46 1598.24,1751.63 1597.5,1751.5C 1583.08,1749.99 1568.74,1747.82 1554.5,1745C 1533.87,1735.86 1517.87,1721.69 1506.5,1702.5C 1508.14,1702.48 1509.48,1703.15 1510.5,1704.5C 1511.17,1703.5 1511.83,1702.5 1512.5,1701.5C 1512.06,1702.96 1512.9,1703.96 1515,1704.5C 1515.95,1704.09 1516.61,1703.43 1517,1702.5C 1517.33,1703.5 1517.67,1704.5 1518,1705.5C 1519.4,1704.77 1520.9,1704.27 1522.5,1704C 1522.93,1703.08 1523.26,1702.25 1523.5,1701.5C 1524.5,1702 1525.5,1702.5 1526.5,1703C 1524.1,1705.06 1521.43,1706.73 1518.5,1708C 1520.23,1709.85 1521.4,1709.69 1522,1707.5C 1523.62,1709.24 1525.12,1711.07 1526.5,1713C 1523.73,1715.76 1524.23,1717.93 1528,1719.5C 1529,1718.17 1530,1718.17 1531,1719.5C 1532.04,1718.38 1532.71,1717.04 1533,1715.5C 1533.33,1716.17 1533.67,1716.83 1534,1717.5C 1534.4,1715.48 1535.57,1714.15 1537.5,1713.5C 1538.29,1714.36 1537.96,1715.19 1536.5,1716C 1538,1718.17 1539.17,1718 1540,1715.5C 1540.67,1718.17 1541.33,1718.17 1542,1715.5C 1542.32,1717.06 1543.15,1718.23 1544.5,1719C 1542.1,1719.81 1542.27,1720.64 1545,1721.5C 1545.26,1719.38 1546.26,1717.72 1548,1716.5C 1549.1,1717.97 1550.6,1718.8 1552.5,1719C 1551.48,1720.05 1551.32,1721.22 1552,1722.5C 1554.72,1721.32 1556.22,1719.66 1556.5,1717.5C 1558.94,1718.74 1559.94,1720.4 1559.5,1722.5C 1560.83,1721.5 1562.17,1720.5 1563.5,1719.5C 1564.75,1720.04 1565.91,1720.71 1567,1721.5C 1567.55,1718.95 1568.89,1716.95 1571,1715.5C 1571.5,1716 1572,1716.5 1572.5,1717C 1572.17,1718 1571.83,1719 1571.5,1720C 1573.05,1721.65 1574.72,1721.98 1576.5,1721C 1575.55,1721.72 1575.38,1722.55 1576,1723.5C 1576.83,1722.5 1577.67,1721.5 1578.5,1720.5C 1579.19,1721.03 1579.69,1721.69 1580,1722.5C 1582.17,1721 1582,1719.83 1579.5,1719C 1580.17,1718.33 1580.83,1717.67 1581.5,1717C 1580.25,1715.51 1580.25,1714.01 1581.5,1712.5C 1582.79,1713.1 1584.13,1713.6 1585.5,1714C 1584.55,1714.48 1583.55,1714.65 1582.5,1714.5C 1582.34,1715.87 1582.51,1717.21 1583,1718.5C 1583.33,1717.83 1583.67,1717.17 1584,1716.5C 1584.67,1718.5 1586,1719.83 1588,1720.5C 1589.78,1717.72 1590.78,1718.06 1591,1721.5C 1591.23,1719.22 1592.07,1717.22 1593.5,1715.5C 1593.73,1717.33 1594.9,1719 1597,1720.5C 1598.71,1719.69 1599.54,1718.36 1599.5,1716.5C 1602.79,1717.39 1606.13,1717.23 1609.5,1716C 1609.93,1715.08 1610.26,1714.25 1610.5,1713.5C 1613.85,1715.27 1615.52,1714.27 1615.5,1710.5C 1612.4,1710.41 1612.07,1710.91 1614.5,1712C 1613.09,1713.27 1611.42,1713.27 1609.5,1712C 1610.31,1711.69 1610.97,1711.19 1611.5,1710.5C 1610.87,1709.58 1610.54,1708.58 1610.5,1707.5 Z"/></g>
<g><path style="opacity:1" fill="#e82f2f" d="M 1522.5,1744.5 C 1531.06,1750.95 1540.4,1756.12 1550.5,1760C 1567.17,1762.88 1583.84,1765.71 1600.5,1768.5C 1602.11,1769.9 1602.94,1771.56 1603,1773.5C 1600.94,1773.76 1598.77,1773.43 1596.5,1772.5C 1595.01,1772.71 1593.84,1773.38 1593,1774.5C 1592.31,1772.11 1591.31,1772.11 1590,1774.5C 1589.75,1773.38 1589.25,1772.38 1588.5,1771.5C 1587.28,1772.71 1586.11,1772.71 1585,1771.5C 1584.67,1772.5 1584.33,1773.5 1584,1774.5C 1582.53,1772.71 1581.69,1771.04 1581.5,1769.5C 1580.41,1770.73 1579.08,1771.56 1577.5,1772C 1578.28,1773.07 1578.11,1774.24 1577,1775.5C 1576.75,1774.38 1576.25,1773.38 1575.5,1772.5C 1574.5,1773.83 1573.5,1773.83 1572.5,1772.5C 1571.75,1773.38 1571.25,1774.38 1571,1775.5C 1570,1772.84 1568.33,1771.84 1566,1772.5C 1565.33,1768.5 1564.67,1768.5 1564,1772.5C 1563.09,1771.67 1562.42,1770.67 1562,1769.5C 1557.16,1774.07 1553.5,1773.4 1551,1767.5C 1550.8,1769.52 1549.8,1771.52 1548,1773.5C 1547.15,1771.88 1546.15,1771.54 1545,1772.5C 1545.08,1771.26 1544.91,1770.26 1544.5,1769.5C 1541.51,1772.06 1538.51,1772.06 1535.5,1769.5C 1534.16,1770.9 1533.32,1770.57 1533,1768.5C 1532.67,1769.17 1532.33,1769.83 1532,1770.5C 1531,1769.5 1530,1768.5 1529,1767.5C 1528.49,1769.9 1527.33,1770.57 1525.5,1769.5C 1524.72,1770.74 1523.72,1771.74 1522.5,1772.5C 1522.5,1771.5 1522.5,1770.5 1522.5,1769.5C 1520.58,1769.11 1518.74,1769.77 1517,1771.5C 1515.45,1769.85 1513.78,1769.52 1512,1770.5C 1510.8,1769.53 1510.3,1768.53 1510.5,1767.5C 1509.48,1768.69 1508.31,1769.69 1507,1770.5C 1506.67,1769.83 1506.33,1769.17 1506,1768.5C 1503.22,1771.28 1501.55,1770.62 1501,1766.5C 1500.64,1769.54 1499.97,1769.88 1499,1767.5C 1495.67,1769.32 1492.34,1770.32 1489,1770.5C 1488.68,1768.7 1488.02,1768.37 1487,1769.5C 1484.82,1765.71 1482.82,1765.71 1481,1769.5C 1479.08,1766.56 1476.58,1765.9 1473.5,1767.5C 1471.28,1765.64 1468.94,1764.97 1466.5,1765.5C 1456.59,1759.59 1448.25,1751.92 1441.5,1742.5C 1442.69,1741.95 1443.86,1741.62 1445,1741.5C 1445.34,1743.07 1446.17,1744.41 1447.5,1745.5C 1446.94,1743.93 1447.61,1742.6 1449.5,1741.5C 1451.92,1742.81 1454.26,1743.81 1456.5,1744.5C 1457.84,1743.1 1458.68,1743.43 1459,1745.5C 1460.1,1743.95 1461.43,1742.61 1463,1741.5C 1463.33,1742.5 1463.67,1743.5 1464,1744.5C 1464.67,1743.17 1465.33,1743.17 1466,1744.5C 1466.6,1742.31 1467.77,1742.15 1469.5,1744C 1468.35,1744.91 1468.51,1745.75 1470,1746.5C 1472.19,1743.75 1473.86,1744.08 1475,1747.5C 1477.8,1745.12 1480.96,1743.95 1484.5,1744C 1483.33,1744.42 1482.33,1745.09 1481.5,1746C 1481.83,1746.17 1482.17,1746.33 1482.5,1746.5C 1485.12,1745.21 1487.62,1744.54 1490,1744.5C 1492.23,1746.2 1494.73,1747.53 1497.5,1748.5C 1499.66,1746.98 1502,1745.98 1504.5,1745.5C 1504.83,1751.8 1505.33,1751.47 1506,1744.5C 1506.5,1745.67 1507.33,1746.5 1508.5,1747C 1506.4,1747.56 1506.24,1748.06 1508,1748.5C 1509.17,1747.49 1510.33,1746.49 1511.5,1745.5C 1512.7,1745.85 1512.7,1746.35 1511.5,1747C 1512.45,1747.62 1513.28,1747.45 1514,1746.5C 1514.33,1747.17 1514.67,1747.83 1515,1748.5C 1515.09,1745.15 1516.26,1744.65 1518.5,1747C 1518.17,1747.33 1517.83,1747.67 1517.5,1748C 1521.46,1750.56 1523.12,1749.39 1522.5,1744.5 Z"/></g>
<g><path style="opacity:1" fill="#e52e2e" d="M 1679.5,1742.5 C 1700.73,1750.35 1700.57,1758.35 1679,1766.5C 1651.69,1761.64 1624.52,1756.64 1597.5,1751.5C 1598.24,1751.63 1598.91,1751.46 1599.5,1751C 1597.12,1750.03 1597.46,1749.36 1600.5,1749C 1599.3,1748.35 1599.3,1747.85 1600.5,1747.5C 1601.25,1748.38 1601.75,1749.38 1602,1750.5C 1602.33,1749.83 1602.67,1749.17 1603,1748.5C 1604.17,1749.89 1605.67,1750.73 1607.5,1751C 1606.83,1751.33 1606.17,1751.67 1605.5,1752C 1607.71,1753.69 1609.54,1753.52 1611,1751.5C 1611.72,1752.45 1612.55,1752.62 1613.5,1752C 1615.02,1750.65 1616.35,1749.15 1617.5,1747.5C 1617.55,1748.69 1617.89,1750.02 1618.5,1751.5C 1619.52,1750.31 1620.69,1749.31 1622,1748.5C 1625.25,1752.18 1628.42,1752.51 1631.5,1749.5C 1631.11,1750.89 1631.94,1751.89 1634,1752.5C 1635.2,1751.53 1635.7,1750.53 1635.5,1749.5C 1636.8,1750.72 1637.8,1750.38 1638.5,1748.5C 1639.43,1749.64 1640.26,1749.64 1641,1748.5C 1641.67,1751.17 1642.33,1751.17 1643,1748.5C 1644.33,1752.5 1645.67,1752.5 1647,1748.5C 1649.93,1752.15 1651.6,1751.82 1652,1747.5C 1652.77,1747.36 1653.44,1747.02 1654,1746.5C 1654.22,1747.94 1654.72,1749.27 1655.5,1750.5C 1656.7,1750.15 1656.7,1749.65 1655.5,1749C 1656.45,1748.38 1657.28,1748.55 1658,1749.5C 1660.1,1748.28 1659.93,1747.45 1657.5,1747C 1659.59,1746.55 1661.09,1747.39 1662,1749.5C 1662.42,1748.04 1663.26,1747.54 1664.5,1748C 1663.01,1749.16 1663.17,1749.99 1665,1750.5C 1666.09,1748.65 1667.42,1747.99 1669,1748.5C 1672.1,1752.09 1673.44,1751.42 1673,1746.5C 1673.69,1747.36 1674.52,1748.02 1675.5,1748.5C 1676.89,1746.46 1678.22,1744.46 1679.5,1742.5 Z"/></g>
<g><path style="opacity:1" fill="#e22e2e" d="M 1466.5,1765.5 C 1468.94,1764.97 1471.28,1765.64 1473.5,1767.5C 1476.58,1765.9 1479.08,1766.56 1481,1769.5C 1482.82,1765.71 1484.82,1765.71 1487,1769.5C 1488.02,1768.37 1488.68,1768.7 1489,1770.5C 1492.34,1770.32 1495.67,1769.32 1499,1767.5C 1499.97,1769.88 1500.64,1769.54 1501,1766.5C 1501.55,1770.62 1503.22,1771.28 1506,1768.5C 1506.33,1769.17 1506.67,1769.83 1507,1770.5C 1508.31,1769.69 1509.48,1768.69 1510.5,1767.5C 1510.3,1768.53 1510.8,1769.53 1512,1770.5C 1513.78,1769.52 1515.45,1769.85 1517,1771.5C 1518.74,1769.77 1520.58,1769.11 1522.5,1769.5C 1522.5,1770.5 1522.5,1771.5 1522.5,1772.5C 1523.72,1771.74 1524.72,1770.74 1525.5,1769.5C 1527.33,1770.57 1528.49,1769.9 1529,1767.5C 1530,1768.5 1531,1769.5 1532,1770.5C 1532.33,1769.83 1532.67,1769.17 1533,1768.5C 1533.32,1770.57 1534.16,1770.9 1535.5,1769.5C 1538.51,1772.06 1541.51,1772.06 1544.5,1769.5C 1544.91,1770.26 1545.08,1771.26 1545,1772.5C 1546.15,1771.54 1547.15,1771.88 1548,1773.5C 1549.8,1771.52 1550.8,1769.52 1551,1767.5C 1553.5,1773.4 1557.16,1774.07 1562,1769.5C 1562.42,1770.67 1563.09,1771.67 1564,1772.5C 1564.67,1768.5 1565.33,1768.5 1566,1772.5C 1568.33,1771.84 1570,1772.84 1571,1775.5C 1571.25,1774.38 1571.75,1773.38 1572.5,1772.5C 1573.5,1773.83 1574.5,1773.83 1575.5,1772.5C 1576.25,1773.38 1576.75,1774.38 1577,1775.5C 1578.11,1774.24 1578.28,1773.07 1577.5,1772C 1579.08,1771.56 1580.41,1770.73 1581.5,1769.5C 1581.69,1771.04 1582.53,1772.71 1584,1774.5C 1584.33,1773.5 1584.67,1772.5 1585,1771.5C 1586.11,1772.71 1587.28,1772.71 1588.5,1771.5C 1589.25,1772.38 1589.75,1773.38 1590,1774.5C 1591.31,1772.11 1592.31,1772.11 1593,1774.5C 1593.84,1773.38 1595.01,1772.71 1596.5,1772.5C 1598.77,1773.43 1600.94,1773.76 1603,1773.5C 1602.94,1771.56 1602.11,1769.9 1600.5,1768.5C 1620.45,1772.22 1640.45,1775.56 1660.5,1778.5C 1660.5,1779.5 1660.5,1780.5 1660.5,1781.5C 1655.17,1783.17 1649.83,1784.83 1644.5,1786.5C 1642.21,1786.24 1640.04,1786.58 1638,1787.5C 1637.33,1783.5 1636.67,1783.5 1636,1787.5C 1634.22,1786.52 1632.55,1786.85 1631,1788.5C 1629.8,1787.53 1629.3,1786.53 1629.5,1785.5C 1627.87,1785.97 1626.7,1786.97 1626,1788.5C 1624.22,1787.52 1622.55,1787.85 1621,1789.5C 1621,1788.17 1621,1786.83 1621,1785.5C 1619.91,1786.29 1618.75,1786.96 1617.5,1787.5C 1615.41,1785.76 1613.24,1785.09 1611,1785.5C 1610.39,1789.27 1609.39,1789.27 1608,1785.5C 1606.19,1788.2 1604.35,1788.54 1602.5,1786.5C 1600.31,1787.67 1598.14,1787.34 1596,1785.5C 1593.91,1786.31 1591.91,1787.31 1590,1788.5C 1588.6,1786.03 1587.1,1786.03 1585.5,1788.5C 1582.15,1786.64 1578.98,1787.3 1576,1790.5C 1575.5,1790 1575,1789.5 1574.5,1789C 1575.96,1788.58 1576.46,1787.74 1576,1786.5C 1575,1787.17 1574,1787.83 1573,1788.5C 1570.12,1786.59 1567.12,1786.25 1564,1787.5C 1563.31,1785.11 1562.31,1785.11 1561,1787.5C 1559.2,1785.17 1557.2,1785.17 1555,1787.5C 1553.33,1786.17 1551.67,1786.17 1550,1787.5C 1549.31,1785.11 1548.31,1785.11 1547,1787.5C 1546.25,1786.87 1545.42,1786.37 1544.5,1786C 1545.45,1785.28 1545.62,1784.45 1545,1783.5C 1542.36,1786.65 1539.52,1787.32 1536.5,1785.5C 1534.67,1787.78 1532.67,1787.78 1530.5,1785.5C 1529.17,1785.83 1527.83,1786.17 1526.5,1786.5C 1525.52,1786.02 1524.69,1785.36 1524,1784.5C 1521.03,1784.52 1517.86,1784.69 1514.5,1785C 1514,1785.5 1513.5,1786 1513,1786.5C 1511.47,1785.36 1510.14,1784.36 1509,1783.5C 1508.58,1784.76 1507.75,1785.42 1506.5,1785.5C 1491.87,1781.3 1478.54,1774.63 1466.5,1765.5 Z"/></g>
<g><path style="opacity:1" fill="#d82c2c" d="M 1644.5,1786.5 C 1598.97,1800.96 1553.31,1801.13 1507.5,1787C 1506.94,1786.62 1506.61,1786.12 1506.5,1785.5C 1507.75,1785.42 1508.58,1784.76 1509,1783.5C 1510.14,1784.36 1511.47,1785.36 1513,1786.5C 1513.5,1786 1514,1785.5 1514.5,1785C 1517.86,1784.69 1521.03,1784.52 1524,1784.5C 1524.69,1785.36 1525.52,1786.02 1526.5,1786.5C 1527.83,1786.17 1529.17,1785.83 1530.5,1785.5C 1532.67,1787.78 1534.67,1787.78 1536.5,1785.5C 1539.52,1787.32 1542.36,1786.65 1545,1783.5C 1545.62,1784.45 1545.45,1785.28 1544.5,1786C 1545.42,1786.37 1546.25,1786.87 1547,1787.5C 1548.31,1785.11 1549.31,1785.11 1550,1787.5C 1551.67,1786.17 1553.33,1786.17 1555,1787.5C 1557.2,1785.17 1559.2,1785.17 1561,1787.5C 1562.31,1785.11 1563.31,1785.11 1564,1787.5C 1567.12,1786.25 1570.12,1786.59 1573,1788.5C 1574,1787.83 1575,1787.17 1576,1786.5C 1576.46,1787.74 1575.96,1788.58 1574.5,1789C 1575,1789.5 1575.5,1790 1576,1790.5C 1578.98,1787.3 1582.15,1786.64 1585.5,1788.5C 1587.1,1786.03 1588.6,1786.03 1590,1788.5C 1591.91,1787.31 1593.91,1786.31 1596,1785.5C 1598.14,1787.34 1600.31,1787.67 1602.5,1786.5C 1604.35,1788.54 1606.19,1788.2 1608,1785.5C 1609.39,1789.27 1610.39,1789.27 1611,1785.5C 1613.24,1785.09 1615.41,1785.76 1617.5,1787.5C 1618.75,1786.96 1619.91,1786.29 1621,1785.5C 1621,1786.83 1621,1788.17 1621,1789.5C 1622.55,1787.85 1624.22,1787.52 1626,1788.5C 1626.7,1786.97 1627.87,1785.97 1629.5,1785.5C 1629.3,1786.53 1629.8,1787.53 1631,1788.5C 1632.55,1786.85 1634.22,1786.52 1636,1787.5C 1636.67,1783.5 1637.33,1783.5 1638,1787.5C 1640.04,1786.58 1642.21,1786.24 1644.5,1786.5 Z"/></g>
</svg>
