<?xml version="1.0" encoding="UTF-8"?>
<!DOCTYPE svg PUBLIC "-//W3C//DTD SVG 1.1//EN" "http://www.w3.org/Graphics/SVG/1.1/DTD/svg11.dtd">
<svg xmlns="http://www.w3.org/2000/svg" version="1.1" width="2000px" height="2000px" style="shape-rendering:geometricPrecision; text-rendering:geometricPrecision; image-rendering:optimizeQuality; fill-rule:evenodd; clip-rule:evenodd" xmlns:xlink="http://www.w3.org/1999/xlink">
<g><path style="opacity:1" fill="#000000" d="M -0.5,-0.5 C 666.167,-0.5 1332.83,-0.5 1999.5,-0.5C 1999.5,666.167 1999.5,1332.83 1999.5,1999.5C 1332.83,1999.5 666.167,1999.5 -0.5,1999.5C -0.5,1332.83 -0.5,666.167 -0.5,-0.5 Z"/></g>
<g><path style="opacity:1" fill="#f43232" d="M 1308.5,422.5 C 1325.51,422.5 1342.51,422.834 1359.5,423.5C 1364.36,424.266 1369.36,424.932 1374.5,425.5C 1388.04,426.191 1401.37,427.525 1414.5,429.5C 1417.3,430.727 1419.97,432.894 1422.5,436C 1420.09,438.035 1420.75,439.035 1424.5,439C 1427.34,442.952 1430.67,446.452 1434.5,449.5C 1434.29,450.086 1433.96,450.586 1433.5,451C 1434.77,451.9 1435.77,453.066 1436.5,454.5C 1438.88,455.177 1441.55,456.011 1444.5,457C 1443.5,457.333 1442.5,457.667 1441.5,458C 1442.65,458.645 1443.65,459.478 1444.5,460.5C 1445.19,459.975 1445.69,459.308 1446,458.5C 1446.16,461.993 1448,463.826 1451.5,464C 1450.83,464.333 1450.17,464.667 1449.5,465C 1450.9,465.595 1452.23,465.428 1453.5,464.5C 1455.32,467.064 1457.15,467.064 1459,464.5C 1460.12,465.949 1460.78,467.616 1461,469.5C 1462.44,467.845 1464.28,467.178 1466.5,467.5C 1466.83,471.5 1467.17,471.5 1467.5,467.5C 1470.58,467.26 1473.58,467.593 1476.5,468.5C 1477.19,467.975 1477.69,467.308 1478,466.5C 1480.49,468.901 1482.83,468.901 1485,466.5C 1485.91,467.328 1486.58,468.328 1487,469.5C 1487.77,468.151 1488.94,467.318 1490.5,467C 1489.33,466.581 1488.33,465.915 1487.5,465C 1488.45,464.383 1489.28,464.549 1490,465.5C 1489.79,461.484 1490.79,461.484 1493,465.5C 1494.09,463.028 1495.76,461.028 1498,459.5C 1498.33,460.5 1498.67,461.5 1499,462.5C 1499.28,461.584 1499.78,460.918 1500.5,460.5C 1502.8,462.401 1504.63,464.734 1506,467.5C 1514.47,485.7 1516.64,504.7 1512.5,524.5C 1482.95,519.591 1456.28,525.925 1432.5,543.5C 1418.79,556.582 1408.29,571.916 1401,589.5C 1395.88,607.642 1391.21,625.975 1387,644.5C 1381.72,660.851 1376.55,677.184 1371.5,693.5C 1374.88,699.024 1378.88,704.191 1383.5,709C 1384.94,709.781 1386.28,709.614 1387.5,708.5C 1398.81,672.812 1408.98,636.812 1418,600.5C 1421,590.828 1425.34,581.828 1431,573.5C 1436.47,567.031 1442.3,560.864 1448.5,555C 1456.41,550.534 1464.74,547.367 1473.5,545.5C 1481.48,544.724 1489.48,544.39 1497.5,544.5C 1528.33,545.498 1559.33,546.165 1590.5,546.5C 1616.57,548.14 1642.57,550.64 1668.5,554C 1677.75,555.789 1686.75,558.455 1695.5,562C 1702.67,566.5 1708.5,572.333 1713,579.5C 1717.88,588.698 1721.04,598.365 1722.5,608.5C 1722.5,619.5 1722.5,630.5 1722.5,641.5C 1722.9,646.037 1721.9,650.203 1719.5,654C 1665.66,645.666 1624.32,663.999 1595.5,709C 1592.05,716.687 1588.21,724.187 1584,731.5C 1581.6,739.536 1579.1,747.536 1576.5,755.5C 1571.76,780.12 1565.93,804.453 1559,828.5C 1551.42,853.181 1544.25,878.014 1537.5,903C 1540.92,908.444 1544.42,913.944 1548,919.5C 1549.7,920.406 1551.53,920.739 1553.5,920.5C 1565.31,878.245 1576.98,835.912 1588.5,793.5C 1591.83,772.18 1597.33,751.513 1605,731.5C 1613.18,714.984 1624.34,700.817 1638.5,689C 1649.16,681.217 1661.16,676.551 1674.5,675C 1736.58,673.679 1798.58,675.345 1860.5,680C 1880.22,682.626 1899.89,685.626 1919.5,689C 1932.96,692.144 1944.79,698.311 1955,707.5C 1957.75,712.008 1960.75,716.341 1964,720.5C 1966.81,725.808 1969.31,731.141 1971.5,736.5C 1971.67,738.861 1972.01,741.194 1972.5,743.5C 1972.46,747.45 1973.13,751.283 1974.5,755C 1973.12,757.55 1973.46,759.883 1975.5,762C 1974.02,763.193 1972.69,763.693 1971.5,763.5C 1972.38,764.251 1973.38,764.751 1974.5,765C 1974.37,767.833 1973.37,770.667 1971.5,773.5C 1971.67,773.833 1971.83,774.167 1972,774.5C 1972.84,772.993 1974,772.493 1975.5,773C 1974,774.491 1973.16,776.324 1973,778.5C 1970.27,779.362 1970.1,780.195 1972.5,781C 1970.12,781.974 1970.46,782.641 1973.5,783C 1972.17,784 1970.83,785 1969.5,786C 1973.5,787 1973.5,788 1969.5,789C 1970.5,789.333 1971.5,789.667 1972.5,790C 1971.02,791.574 1969.35,792.907 1967.5,794C 1970.17,796 1970.17,798 1967.5,800C 1969.91,801.908 1969.91,803.908 1967.5,806C 1967.64,806.772 1967.98,807.439 1968.5,808C 1967.88,811.901 1966.88,815.901 1965.5,820C 1966.6,828.805 1966.6,837.972 1965.5,847.5C 1957.97,879.134 1950.3,910.8 1942.5,942.5C 1916.9,1068.37 1892.4,1194.37 1869,1320.5C 1855.57,1337.08 1839.07,1349.58 1819.5,1358C 1790.09,1370.01 1759.76,1378.51 1728.5,1383.5C 1722.93,1383.38 1717.6,1384.04 1712.5,1385.5C 1710.78,1386.22 1708.95,1386.89 1707,1387.5C 1706.5,1431.83 1706.33,1476.17 1706.5,1520.5C 1708.2,1520.66 1709.87,1520.49 1711.5,1520C 1750.55,1503.76 1789.88,1488.09 1829.5,1473C 1844.38,1472.21 1853.05,1479.21 1855.5,1494C 1854.81,1497.75 1853.81,1501.42 1852.5,1505C 1855.54,1524.3 1847.37,1535.47 1828,1538.5C 1824.4,1538.04 1820.9,1537.21 1817.5,1536C 1814.14,1532.99 1810.47,1530.49 1806.5,1528.5C 1789.53,1535.43 1772.53,1542.27 1755.5,1549C 1750.23,1550.87 1744.89,1552.54 1739.5,1554C 1737.85,1555.55 1737.52,1557.22 1738.5,1559C 1774.88,1572.35 1810.88,1586.68 1846.5,1602C 1855.29,1610.27 1857.29,1619.94 1852.5,1631C 1856.71,1653.77 1847.38,1665.44 1824.5,1666C 1816.92,1663.96 1810.75,1659.79 1806,1653.5C 1803.43,1646.97 1802.93,1640.31 1804.5,1633.5C 1804.08,1632.33 1803.41,1631.33 1802.5,1630.5C 1760.19,1614.4 1718.19,1597.74 1676.5,1580.5C 1634,1597.61 1591.34,1614.45 1548.5,1631C 1547.31,1632.02 1546.31,1633.19 1545.5,1634.5C 1551.57,1649.3 1547.57,1660.8 1533.5,1669C 1508.26,1674.08 1496.42,1663.91 1498,1638.5C 1498.93,1636.54 1499.76,1634.54 1500.5,1632.5C 1494.48,1621.09 1496.15,1610.93 1505.5,1602C 1541.29,1587.11 1577.29,1572.77 1613.5,1559C 1615.01,1556.55 1614.35,1554.88 1611.5,1554C 1591.24,1546.08 1570.9,1538.24 1550.5,1530.5C 1547.17,1532.59 1545.01,1535.59 1544,1539.5C 1534.71,1549.9 1523.54,1552.4 1510.5,1547C 1496.34,1536.79 1493.67,1524.12 1502.5,1509C 1493.42,1495.73 1495.42,1484.4 1508.5,1475C 1512.97,1472.86 1517.64,1472.19 1522.5,1473C 1562.18,1487.83 1601.51,1503.33 1640.5,1519.5C 1642.26,1520.46 1644.26,1520.79 1646.5,1520.5C 1646.83,1484.33 1646.5,1448.33 1645.5,1412.5C 1644.31,1411.22 1642.64,1410.56 1640.5,1410.5C 1571.56,1436.99 1500.56,1456.49 1427.5,1469C 1402.78,1484.89 1384.78,1506.39 1373.5,1533.5C 1372.94,1535.82 1372.44,1538.15 1372,1540.5C 1370.53,1588.13 1370.03,1635.8 1370.5,1683.5C 1129.5,1683.5 888.5,1683.5 647.5,1683.5C 647.667,1639.17 647.5,1594.83 647,1550.5C 642.293,1523.44 629.46,1500.94 608.5,1483C 601.358,1476.6 593.691,1470.93 585.5,1466C 541.868,1455.85 498.535,1444.52 455.5,1432C 430.827,1423.22 406.161,1414.22 381.5,1405C 369.459,1398.44 356.792,1393.61 343.5,1390.5C 340.668,1391.5 339.335,1393.5 339.5,1396.5C 339.474,1437.38 339.474,1478.04 339.5,1518.5C 340.79,1520.14 342.457,1520.64 344.5,1520C 382.459,1503.68 420.793,1488.35 459.5,1474C 476.28,1470.05 485.947,1476.55 488.5,1493.5C 488.545,1497.3 487.878,1500.97 486.5,1504.5C 490.068,1520.87 484.068,1532.03 468.5,1538C 464.167,1538.67 459.833,1538.67 455.5,1538C 449.828,1535.82 444.828,1532.65 440.5,1528.5C 417.161,1537.4 394.161,1546.73 371.5,1556.5C 371.608,1557.44 371.941,1558.28 372.5,1559C 403.223,1570.24 433.723,1582.07 464,1594.5C 470.408,1597.02 476.575,1600.02 482.5,1603.5C 484.968,1606.47 486.802,1609.81 488,1613.5C 486.616,1624.44 486.282,1635.44 487,1646.5C 485.432,1654.72 480.932,1660.55 473.5,1664C 460.06,1668.68 448.894,1665.52 440,1654.5C 436.86,1646.85 435.694,1639.02 436.5,1631C 394.294,1614.46 352.294,1597.63 310.5,1580.5C 267.953,1597.63 225.286,1614.46 182.5,1631C 179.05,1633.16 178.717,1635.66 181.5,1638.5C 183.664,1661.84 172.997,1672.34 149.5,1670C 137.383,1666.38 131.05,1658.21 130.5,1645.5C 131.121,1641.06 132.121,1636.72 133.5,1632.5C 127.86,1620.23 130.194,1609.73 140.5,1601C 168.279,1589.41 196.279,1578.41 224.5,1568C 231.74,1564.05 239.406,1561.22 247.5,1559.5C 247.859,1557.23 247.192,1555.4 245.5,1554C 225.165,1546.17 204.832,1538.33 184.5,1530.5C 180.878,1532.4 178.712,1535.4 178,1539.5C 175.218,1542.78 172.051,1545.44 168.5,1547.5C 151.751,1553.37 139.585,1548.37 132,1532.5C 129.473,1523.82 130.973,1515.99 136.5,1509C 129.163,1499.94 128.663,1490.44 135,1480.5C 139.593,1475.24 145.426,1472.57 152.5,1472.5C 160.597,1473.92 168.431,1476.25 176,1479.5C 192.445,1485.76 208.612,1492.59 224.5,1500C 241.733,1505.51 258.4,1512.18 274.5,1520C 276.235,1520.65 277.902,1520.48 279.5,1519.5C 280.667,1475.17 280.833,1430.84 280,1386.5C 277.399,1384.78 274.566,1383.45 271.5,1382.5C 231.786,1376.93 194.453,1364.59 159.5,1345.5C 149.891,1338.73 141.391,1330.73 134,1321.5C 108.196,1178.31 80.0292,1035.65 49.5,893.5C 43.1937,867.797 36.1937,842.297 28.5,817C 21.3878,786.397 23.5545,756.563 35,727.5C 40.803,714.715 49.6363,704.548 61.5,697C 69.0197,694.717 76.3531,692.05 83.5,689C 133.709,679.723 184.376,675.223 235.5,675.5C 266.486,674.563 297.486,674.23 328.5,674.5C 350.292,678.322 368.125,688.988 382,706.5C 386.751,713.004 391.251,719.67 395.5,726.5C 398.503,733.843 401.503,741.176 404.5,748.5C 409.796,772.245 415.463,795.912 421.5,819.5C 427.806,843.09 434.473,866.423 441.5,889.5C 441.565,892.428 442.232,895.095 443.5,897.5C 445.76,903.926 447.594,910.592 449,917.5C 451.316,918.367 453.316,917.701 455,915.5C 458.008,910.15 461.508,905.15 465.5,900.5C 461.212,888.679 457.545,876.679 454.5,864.5C 454.59,861.848 453.924,859.515 452.5,857.5C 442.095,820.88 432.761,783.88 424.5,746.5C 415.199,715.061 397.533,689.561 371.5,670C 363.968,666.068 356.301,662.401 348.5,659C 341.1,657.16 333.766,655.66 326.5,654.5C 312.01,653.504 297.343,653.171 282.5,653.5C 276.709,632.059 277.543,610.726 285,589.5C 289.306,578.728 296.139,569.894 305.5,563C 312.473,560.398 319.473,557.898 326.5,555.5C 344.206,552.351 361.872,550.017 379.5,548.5C 390.029,548.53 400.362,547.863 410.5,546.5C 420.653,545.506 430.986,545.172 441.5,545.5C 463.193,546.156 484.526,545.489 505.5,543.5C 539.383,541.351 563.883,555.351 579,585.5C 586.06,601.124 590.727,617.457 593,634.5C 596.943,645.595 600.276,656.928 603,668.5C 607.477,680.596 611.143,692.93 614,705.5C 615.493,707.56 617.326,707.893 619.5,706.5C 622.405,702.248 625.571,698.248 629,694.5C 630.373,692.305 630.706,689.971 630,687.5C 624.451,671.475 619.284,655.308 614.5,639C 610.917,622.658 606.751,606.491 602,590.5C 582.314,540.548 545.481,518.548 491.5,524.5C 485.631,502.375 488.464,481.375 500,461.5C 503.5,456.667 507.667,452.5 512.5,449C 519.026,445.906 525.692,443.072 532.5,440.5C 563.936,431.904 595.936,426.904 628.5,425.5C 638.949,424.38 649.283,423.38 659.5,422.5C 671.171,422.333 682.838,422.5 694.5,423C 708.451,425.224 719.951,431.724 729,442.5C 734.152,450.127 738.819,458.127 743,466.5C 749.575,493.288 756.575,519.955 764,546.5C 764.725,547.059 765.558,547.392 766.5,547.5C 773.916,543.525 781.582,540.025 789.5,537C 804.508,532.885 819.342,528.385 834,523.5C 834.333,480.833 834.667,438.167 835,395.5C 837.243,387.275 840.743,379.608 845.5,372.5C 857.676,359.401 872.01,349.235 888.5,342C 939.698,322.496 992.531,316.662 1047,324.5C 1057.82,326.719 1068.65,328.886 1079.5,331C 1098.21,335.858 1115.88,343.192 1132.5,353C 1144.5,360.899 1154,371.065 1161,383.5C 1162.52,387.105 1163.85,390.772 1165,394.5C 1165.33,437.5 1165.67,480.5 1166,523.5C 1180.11,528.199 1194.44,532.532 1209,536.5C 1214.99,539.386 1221.15,541.886 1227.5,544C 1230.63,545.635 1233.63,547.468 1236.5,549.5C 1237.48,549.023 1238.31,548.357 1239,547.5C 1246.05,521.273 1252.71,494.94 1259,468.5C 1266.18,449.656 1278.68,435.49 1296.5,426C 1300.62,424.808 1304.62,423.641 1308.5,422.5 Z"/></g>
<g><path style="opacity:1" fill="#641817" d="M 1308.5,422.5 C 1325.52,421.139 1342.52,421.472 1359.5,423.5C 1342.51,422.834 1325.51,422.5 1308.5,422.5 Z"/></g>
<g><path style="opacity:1" fill="#481717" d="M 659.5,422.5 C 649.283,423.38 638.949,424.38 628.5,425.5C 628.611,424.883 628.944,424.383 629.5,424C 639.474,422.946 649.474,422.446 659.5,422.5 Z"/></g>
<g><path style="opacity:1" fill="#481a1b" d="M 1359.5,423.5 C 1364.18,423.334 1368.85,423.501 1373.5,424C 1374.06,424.383 1374.39,424.883 1374.5,425.5C 1369.36,424.932 1364.36,424.266 1359.5,423.5 Z"/></g>
<g><path style="opacity:1" fill="#f33a3a" d="M 1414.5,429.5 C 1437.66,432.565 1460.33,437.732 1482.5,445C 1490.24,448.244 1496.24,453.41 1500.5,460.5C 1499.78,460.918 1499.28,461.584 1499,462.5C 1498.67,461.5 1498.33,460.5 1498,459.5C 1495.76,461.028 1494.09,463.028 1493,465.5C 1490.79,461.484 1489.79,461.484 1490,465.5C 1489.28,464.549 1488.45,464.383 1487.5,465C 1488.33,465.915 1489.33,466.581 1490.5,467C 1488.94,467.318 1487.77,468.151 1487,469.5C 1486.58,468.328 1485.91,467.328 1485,466.5C 1482.83,468.901 1480.49,468.901 1478,466.5C 1477.69,467.308 1477.19,467.975 1476.5,468.5C 1473.58,467.593 1470.58,467.26 1467.5,467.5C 1467.17,471.5 1466.83,471.5 1466.5,467.5C 1464.28,467.178 1462.44,467.845 1461,469.5C 1460.78,467.616 1460.12,465.949 1459,464.5C 1457.15,467.064 1455.32,467.064 1453.5,464.5C 1452.23,465.428 1450.9,465.595 1449.5,465C 1450.17,464.667 1450.83,464.333 1451.5,464C 1448,463.826 1446.16,461.993 1446,458.5C 1445.69,459.308 1445.19,459.975 1444.5,460.5C 1443.65,459.478 1442.65,458.645 1441.5,458C 1442.5,457.667 1443.5,457.333 1444.5,457C 1441.55,456.011 1438.88,455.177 1436.5,454.5C 1435.77,453.066 1434.77,451.9 1433.5,451C 1433.96,450.586 1434.29,450.086 1434.5,449.5C 1430.67,446.452 1427.34,442.952 1424.5,439C 1420.75,439.035 1420.09,438.035 1422.5,436C 1419.97,432.894 1417.3,430.727 1414.5,429.5 Z"/></g>
<g><path style="opacity:1" fill="#ad3231" d="M 1497.5,544.5 C 1489.48,544.39 1481.48,544.724 1473.5,545.5C 1478.08,544.01 1482.91,543.344 1488,543.5C 1491.35,543.502 1494.52,543.835 1497.5,544.5 Z"/></g>
<g><path style="opacity:1" fill="#a52e2c" d="M 505.5,543.5 C 484.526,545.489 463.193,546.156 441.5,545.5C 462.671,544.696 484.005,544.029 505.5,543.5 Z"/></g>
<g><path style="opacity:1" fill="#a22726" d="M 1497.5,544.5 C 1528.68,544.153 1559.68,544.819 1590.5,546.5C 1559.33,546.165 1528.33,545.498 1497.5,544.5 Z"/></g>
<g><path style="opacity:1" fill="#5d1818" d="M 410.5,546.5 C 400.362,547.863 390.029,548.53 379.5,548.5C 389.638,547.137 399.971,546.47 410.5,546.5 Z"/></g>
<g><path style="opacity:1" fill="#b22424" d="M 965.5,558.5 C 998.18,557.128 1030.85,557.461 1063.5,559.5C 1030.84,558.823 998.171,558.49 965.5,558.5 Z"/></g>
<g><path style="opacity:1" fill="#000000" d="M 965.5,558.5 C 998.171,558.49 1030.84,558.823 1063.5,559.5C 1081.04,560.94 1098.7,562.607 1116.5,564.5C 1134.35,567.694 1152.19,571.027 1170,574.5C 1179.13,577.408 1188.3,580.241 1197.5,583C 1215.68,590.004 1231.84,600.17 1246,613.5C 1376.12,778.78 1506.45,943.78 1637,1108.5C 1652,1128.17 1667,1147.83 1682,1167.5C 1688.63,1175.8 1695.63,1183.8 1703,1191.5C 1709.82,1199.91 1710.15,1208.58 1704,1217.5C 1699.53,1222.97 1694.7,1228.13 1689.5,1233C 1679.25,1240.47 1668.58,1247.47 1657.5,1254C 1637.93,1262.95 1618.26,1271.62 1598.5,1280C 1579.38,1286.93 1560.05,1293.26 1540.5,1299C 1421.93,1331.31 1301.26,1351.81 1178.5,1360.5C 1173,1360.95 1167.67,1361.62 1162.5,1362.5C 1071.41,1369.06 980.242,1370.06 889,1365.5C 851.317,1362.39 813.65,1359.05 776,1355.5C 756.898,1352.56 737.731,1350.06 718.5,1348C 694.433,1343.59 670.433,1339.42 646.5,1335.5C 640.791,1333.5 634.791,1332.5 628.5,1332.5C 572.979,1320.7 517.979,1306.54 463.5,1290C 438.866,1280.69 414.199,1271.35 389.5,1262C 365.875,1251.37 343.541,1238.7 322.5,1224C 318.966,1220.13 315.133,1216.63 311,1213.5C 306.653,1208.81 303.319,1203.47 301,1197.5C 300.333,1194.83 300.333,1192.17 301,1189.5C 308.333,1179.5 315.667,1169.5 323,1159.5C 456.021,991.475 588.688,823.142 721,654.5C 731.097,643.072 740.431,631.072 749,618.5C 754.505,612.662 760.338,607.162 766.5,602C 776.596,595.285 787.262,589.618 798.5,585C 825.14,575.109 852.474,568.609 880.5,565.5C 887.363,565.362 894.03,564.696 900.5,563.5C 922.104,560.966 943.771,559.3 965.5,558.5 Z"/></g>
<g><path style="opacity:1" fill="#5d1313" d="M 900.5,563.5 C 894.03,564.696 887.363,565.362 880.5,565.5C 886.937,563.961 893.604,563.294 900.5,563.5 Z"/></g>
<g><path style="opacity:1" fill="#b83534" d="M 1722.5,608.5 C 1725.11,619.497 1725.11,630.497 1722.5,641.5C 1722.5,630.5 1722.5,619.5 1722.5,608.5 Z"/></g>
<g><path style="opacity:1" fill="#ab2626" d="M 282.5,653.5 C 297.343,653.171 312.01,653.504 326.5,654.5C 312.784,654.185 299.117,654.518 285.5,655.5C 284.261,655.058 283.261,654.391 282.5,653.5 Z"/></g>
<g><path style="opacity:1" fill="#3d1011" d="M 328.5,674.5 C 297.486,674.23 266.486,674.563 235.5,675.5C 235.918,674.778 236.584,674.278 237.5,674C 268.003,673.169 298.336,673.336 328.5,674.5 Z"/></g>
<g><path style="opacity:1" fill="#792524" d="M 1971.5,736.5 C 1972.92,738.515 1973.59,740.848 1973.5,743.5C 1973.17,743.5 1972.83,743.5 1972.5,743.5C 1972.01,741.194 1971.67,738.861 1971.5,736.5 Z"/></g>
<g><path style="opacity:1" fill="#ee3939" d="M 1972.5,743.5 C 1972.83,743.5 1973.17,743.5 1973.5,743.5C 1976.5,754.662 1978.17,766.162 1978.5,778C 1977.81,802.012 1973.48,825.179 1965.5,847.5C 1966.6,837.972 1966.6,828.805 1965.5,820C 1966.88,815.901 1967.88,811.901 1968.5,808C 1967.98,807.439 1967.64,806.772 1967.5,806C 1969.91,803.908 1969.91,801.908 1967.5,800C 1970.17,798 1970.17,796 1967.5,794C 1969.35,792.907 1971.02,791.574 1972.5,790C 1971.5,789.667 1970.5,789.333 1969.5,789C 1973.5,788 1973.5,787 1969.5,786C 1970.83,785 1972.17,784 1973.5,783C 1970.46,782.641 1970.12,781.974 1972.5,781C 1970.1,780.195 1970.27,779.362 1973,778.5C 1973.16,776.324 1974,774.491 1975.5,773C 1974,772.493 1972.84,772.993 1972,774.5C 1971.83,774.167 1971.67,773.833 1971.5,773.5C 1973.37,770.667 1974.37,767.833 1974.5,765C 1973.38,764.751 1972.38,764.251 1971.5,763.5C 1972.69,763.693 1974.02,763.193 1975.5,762C 1973.46,759.883 1973.12,757.55 1974.5,755C 1973.13,751.283 1972.46,747.45 1972.5,743.5 Z"/></g>
<g><path style="opacity:1" fill="#521111" d="M 452.5,857.5 C 453.924,859.515 454.59,861.848 454.5,864.5C 453.076,862.485 452.41,860.152 452.5,857.5 Z"/></g>
<g><path style="opacity:1" fill="#821a1a" d="M 441.5,889.5 C 443.04,891.838 443.706,894.505 443.5,897.5C 442.232,895.095 441.565,892.428 441.5,889.5 Z"/></g>
<g><path style="opacity:1" fill="#9a1f1f" d="M 628.5,1332.5 C 634.791,1332.5 640.791,1333.5 646.5,1335.5C 640.291,1334.99 634.291,1333.99 628.5,1332.5 Z"/></g>
<g><path style="opacity:1" fill="#af2323" d="M 1178.5,1360.5 C 1177.74,1361.27 1176.74,1361.77 1175.5,1362C 1171.18,1362.5 1166.85,1362.67 1162.5,1362.5C 1167.67,1361.62 1173,1360.95 1178.5,1360.5 Z"/></g>
<g><path style="opacity:1" fill="#942524" d="M 1728.5,1383.5 C 1723.38,1384.81 1718.05,1385.47 1712.5,1385.5C 1717.6,1384.04 1722.93,1383.38 1728.5,1383.5 Z"/></g>
<g><path style="opacity:1" fill="#b72b2b" d="M 339.5,1396.5 C 340.819,1437.03 340.819,1477.69 339.5,1518.5C 339.474,1478.04 339.474,1437.38 339.5,1396.5 Z"/></g>
<g><path style="opacity:1" fill="#551212" d="M 1645.5,1412.5 C 1646.5,1448.33 1646.83,1484.33 1646.5,1520.5C 1644.26,1520.79 1642.26,1520.46 1640.5,1519.5C 1642.17,1519.5 1643.83,1519.5 1645.5,1519.5C 1645.5,1483.83 1645.5,1448.17 1645.5,1412.5 Z"/></g>
</svg>
