<?xml version="1.0" encoding="UTF-8"?>
<!DOCTYPE svg PUBLIC "-//W3C//DTD SVG 1.1//EN" "http://www.w3.org/Graphics/SVG/1.1/DTD/svg11.dtd">
<svg xmlns="http://www.w3.org/2000/svg" version="1.1" width="2000px" height="2000px" style="shape-rendering:geometricPrecision; text-rendering:geometricPrecision; image-rendering:optimizeQuality; fill-rule:evenodd; clip-rule:evenodd" xmlns:xlink="http://www.w3.org/1999/xlink">
<g><path style="opacity:1" fill="#000000" d="M -0.5,-0.5 C 666.167,-0.5 1332.83,-0.5 1999.5,-0.5C 1999.5,666.167 1999.5,1332.83 1999.5,1999.5C 1332.83,1999.5 666.167,1999.5 -0.5,1999.5C -0.5,1332.83 -0.5,666.167 -0.5,-0.5 Z"/></g>
<g><path style="opacity:1" fill="#1d0605" d="M 1261.5,103.5 C 1266.72,105.427 1269.06,109.26 1268.5,115C 1268.01,120.151 1266.51,124.984 1264,129.5C 1262.99,130.337 1261.82,130.67 1260.5,130.5C 1259.86,132.76 1258.69,134.76 1257,136.5C 1256.5,134.527 1256.34,132.527 1256.5,130.5C 1253.57,129.886 1250.73,128.886 1248,127.5C 1246.83,126.991 1246,126.158 1245.5,125C 1248.61,125.936 1251.94,126.436 1255.5,126.5C 1260.6,127.228 1264.1,125.228 1266,120.5C 1266.67,116.833 1266.67,113.167 1266,109.5C 1264.61,107.298 1263.11,105.298 1261.5,103.5 Z"/></g>
<g><path style="opacity:1" fill="#f13131" d="M 942.5,398.5 C 946.312,397.974 949.979,397.307 953.5,396.5C 1060.23,382.582 1156.89,407.415 1243.5,471C 1330.12,539.385 1380.62,628.551 1395,738.5C 1405.62,889.513 1350.78,1010.01 1230.5,1100C 1217.83,1107.67 1205.17,1115.33 1192.5,1123C 1160.08,1139.92 1126.08,1152.25 1090.5,1160C 1063.3,1191.37 1035.96,1222.53 1008.5,1253.5C 1002.54,1247.71 996.707,1241.71 991,1235.5C 970.021,1210.35 948.854,1185.35 927.5,1160.5C 837.602,1140.05 763.435,1094.38 705,1023.5C 635.072,931.994 608.406,828.994 625,714.5C 651.313,584.875 723.313,489.875 841,429.5C 855.187,423.993 869.354,418.327 883.5,412.5C 891.814,410.172 900.147,408.005 908.5,406C 909.672,405.581 910.672,404.915 911.5,404C 921.685,401.434 932.019,399.601 942.5,398.5 Z"/></g>
<g><path style="opacity:1" fill="#7d1919" d="M 953.5,396.5 C 949.979,397.307 946.312,397.974 942.5,398.5C 942.611,397.883 942.944,397.383 943.5,397C 946.817,396.502 950.15,396.335 953.5,396.5 Z"/></g>
<g><path style="opacity:1" fill="#000000" d="M 1341.5,638.5 C 1340.47,637.645 1339.3,636.978 1338,636.5C 1331.85,637.366 1325.68,638.199 1319.5,639C 1318.31,640.353 1316.98,641.52 1315.5,642.5C 1316,642.833 1316.5,643.167 1317,643.5C 1324.07,639.948 1331.57,638.782 1339.5,640C 1340.82,642.168 1341.49,642.001 1341.5,639.5C 1343.36,640.602 1344.69,642.269 1345.5,644.5C 1386.85,755.534 1378.68,862.534 1321,965.5C 1274.16,1041.44 1209,1094.44 1125.5,1124.5C 1109.03,1129.35 1092.36,1133.68 1075.5,1137.5C 1053.18,1163.48 1030.85,1189.48 1008.5,1215.5C 986.677,1190.54 964.843,1165.54 943,1140.5C 942.691,1139.23 942.191,1138.07 941.5,1137C 834.904,1115.04 753.071,1057.87 696,965.5C 674.411,928.47 659.577,888.804 651.5,846.5C 651.57,842.575 650.903,838.909 649.5,835.5C 634.66,723.614 663.494,625.281 736,540.5C 817.889,451.85 919.389,411.35 1040.5,419C 1162.76,433.286 1256.59,492.453 1322,596.5C 1326.89,607.11 1332.23,617.443 1338,627.5C 1339.28,631.165 1340.44,634.832 1341.5,638.5 Z"/></g>
<g><path style="opacity:1" fill="#a22121" d="M 504.5,453.5 C 484.151,453.268 463.817,453.601 443.5,454.5C 445.631,453.686 447.964,453.186 450.5,453C 468.671,452.171 486.671,452.338 504.5,453.5 Z"/></g>
<g><path style="opacity:1" fill="#f13131" d="M 504.5,453.5 C 523.76,455.108 542.76,458.108 561.5,462.5C 563.515,463.924 565.848,464.59 568.5,464.5C 607.707,475.188 643.873,492.188 677,515.5C 677.667,516.5 677.667,517.5 677,518.5C 672.94,524.138 668.774,529.638 664.5,535C 662.365,535.635 660.365,535.301 658.5,534C 617.191,505.844 571.858,488.011 522.5,480.5C 515.711,479.125 508.711,478.458 501.5,478.5C 398.358,474.014 311.858,509.348 242,584.5C 174.064,666.691 150.731,760.691 172,866.5C 205.187,984.021 280.02,1061.19 396.5,1098C 419.697,1102.94 443.031,1106.28 466.5,1108C 486.076,1109.15 505.409,1107.98 524.5,1104.5C 526.167,1104.83 527.833,1105.17 529.5,1105.5C 555.955,1120.32 582.289,1135.32 608.5,1150.5C 611.965,1143.97 615.131,1137.3 618,1130.5C 625.638,1107.41 634.138,1084.74 643.5,1062.5C 654.748,1055.58 665.415,1047.91 675.5,1039.5C 679.808,1045.64 684.308,1051.64 689,1057.5C 689.582,1060.01 688.749,1062.01 686.5,1063.5C 678.544,1069.06 670.711,1074.72 663,1080.5C 655.536,1101.06 647.87,1121.39 640,1141.5C 634.875,1154.33 630.208,1167.33 626,1180.5C 625.028,1182.77 623.695,1184.77 622,1186.5C 588.923,1168.71 556.09,1150.55 523.5,1132C 495.681,1133.86 467.681,1133.86 439.5,1132C 425.351,1129.65 411.351,1126.82 397.5,1123.5C 395.039,1122.47 392.373,1121.8 389.5,1121.5C 277.967,1088.46 201.134,1017.8 159,909.5C 139.525,853.993 134.192,796.993 143,738.5C 161.19,638.979 212.356,561.146 296.5,505C 313.47,495.444 330.803,486.444 348.5,478C 355.516,476.321 362.183,473.821 368.5,470.5C 375.909,468.244 383.242,466.244 390.5,464.5C 393.152,464.59 395.485,463.924 397.5,462.5C 412.555,458.831 427.888,456.164 443.5,454.5C 463.817,453.601 484.151,453.268 504.5,453.5 Z"/></g>
<g><path style="opacity:1" fill="#f13131" d="M 1571.5,454.5 C 1577.65,455.543 1583.98,456.21 1590.5,456.5C 1689.22,473.926 1766.72,523.926 1823,606.5C 1858.01,661.63 1876.51,721.964 1878.5,787.5C 1877.57,797.664 1876.9,807.997 1876.5,818.5C 1870.39,896.545 1841.39,964.545 1789.5,1022.5C 1714.5,1101.85 1622.16,1138.52 1512.5,1132.5C 1507.68,1131.6 1502.68,1130.93 1497.5,1130.5C 1495.95,1130.51 1494.62,1130.84 1493.5,1131.5C 1463.05,1149.23 1432.39,1166.73 1401.5,1184C 1398.91,1185.31 1396.24,1185.98 1393.5,1186C 1379.96,1151.39 1366.79,1116.56 1354,1081.5C 1345.92,1074.88 1337.76,1068.38 1329.5,1062C 1328.55,1061.52 1327.55,1061.35 1326.5,1061.5C 1326.24,1060.02 1326.57,1058.69 1327.5,1057.5C 1332.2,1051.81 1336.86,1046.14 1341.5,1040.5C 1351.91,1048.25 1362.58,1055.59 1373.5,1062.5C 1380.93,1080.36 1388.09,1098.36 1395,1116.5C 1396.37,1122.25 1398.04,1127.91 1400,1133.5C 1402.52,1139.26 1405.19,1144.92 1408,1150.5C 1410.78,1149.2 1413.61,1148.03 1416.5,1147C 1420.62,1143.77 1424.96,1140.77 1429.5,1138C 1448.3,1127.77 1466.96,1117.27 1485.5,1106.5C 1489.49,1104.39 1493.49,1104.05 1497.5,1105.5C 1503.26,1107.06 1509.26,1107.72 1515.5,1107.5C 1534.46,1109.59 1553.46,1109.25 1572.5,1106.5C 1577.71,1106.39 1582.71,1105.72 1587.5,1104.5C 1594.03,1103.06 1600.69,1101.73 1607.5,1100.5C 1610.43,1100.43 1613.09,1099.77 1615.5,1098.5C 1726.64,1066.87 1801.14,996.207 1839,886.5C 1841.03,877.701 1843.37,869.034 1846,860.5C 1847.98,849.553 1849.48,838.553 1850.5,827.5C 1851.22,827.082 1851.72,826.416 1852,825.5C 1852.44,814.664 1852.94,803.831 1853.5,793C 1853.5,789.648 1853.16,786.482 1852.5,783.5C 1851.96,767.724 1850.29,752.057 1847.5,736.5C 1847.84,732.84 1847.17,729.507 1845.5,726.5C 1820.61,622.439 1759.61,547.939 1662.5,503C 1596.68,476.76 1529.01,471.427 1459.5,487C 1458.83,487.667 1458.17,488.333 1457.5,489C 1421.52,497.832 1388.52,512.832 1358.5,534C 1356.6,535.301 1354.6,535.968 1352.5,536C 1348.17,529.668 1343.84,523.335 1339.5,517C 1344.6,512.608 1349.93,508.441 1355.5,504.5C 1365.52,499.492 1375.19,493.992 1384.5,488C 1406.4,478.477 1428.74,470.143 1451.5,463C 1462.19,460.363 1472.85,458.196 1483.5,456.5C 1489.71,456.477 1495.71,455.81 1501.5,454.5C 1513.56,452.959 1525.72,452.292 1538,452.5C 1546.83,452.667 1555.67,452.833 1564.5,453C 1567.04,453.186 1569.37,453.686 1571.5,454.5 Z"/></g>
<g><path style="opacity:1" fill="#571212" d="M 1501.5,454.5 C 1495.71,455.81 1489.71,456.477 1483.5,456.5C 1489.27,455.054 1495.27,454.388 1501.5,454.5 Z"/></g>
<g><path style="opacity:1" fill="#651415" d="M 1571.5,454.5 C 1578.08,454.156 1584.42,454.823 1590.5,456.5C 1583.98,456.21 1577.65,455.543 1571.5,454.5 Z"/></g>
<g><path style="opacity:1" fill="#941e1e" d="M 397.5,462.5 C 395.485,463.924 393.152,464.59 390.5,464.5C 392.438,462.837 394.772,462.171 397.5,462.5 Z"/></g>
<g><path style="opacity:1" fill="#5f1515" d="M 561.5,462.5 C 564.228,462.171 566.562,462.837 568.5,464.5C 565.848,464.59 563.515,463.924 561.5,462.5 Z"/></g>
<g><path style="opacity:1" fill="#861b1b" d="M 501.5,478.5 C 508.711,478.458 515.711,479.125 522.5,480.5C 515.262,480.82 508.262,480.153 501.5,478.5 Z"/></g>
<g><path style="opacity:1" fill="#f33131" d="M 1036.5,601.5 C 1034.73,624.641 1034.07,647.974 1034.5,671.5C 1033.18,713.656 1031.85,755.656 1030.5,797.5C 1029.52,817.997 1028.85,838.664 1028.5,859.5C 1015.1,860.83 1001.6,860.83 988,859.5C 985.009,767.182 982.509,674.849 980.5,582.5C 999.167,582.5 1017.83,582.5 1036.5,582.5C 1036.5,588.833 1036.5,595.167 1036.5,601.5 Z"/></g>
<g><path style="opacity:1" fill="#661516" d="M 1036.5,601.5 C 1036.1,625.001 1035.43,648.334 1034.5,671.5C 1034.07,647.974 1034.73,624.641 1036.5,601.5 Z"/></g>
<g><path style="opacity:1" fill="#220806" d="M 1341.5,638.5 C 1341.5,638.833 1341.5,639.167 1341.5,639.5C 1341.49,642.001 1340.82,642.168 1339.5,640C 1331.57,638.782 1324.07,639.948 1317,643.5C 1316.5,643.167 1316,642.833 1315.5,642.5C 1316.98,641.52 1318.31,640.353 1319.5,639C 1325.68,638.199 1331.85,637.366 1338,636.5C 1339.3,636.978 1340.47,637.645 1341.5,638.5 Z"/></g>
<g><path style="opacity:1" fill="#200806" d="M 747.5,650.5 C 748.822,650.33 749.989,650.663 751,651.5C 751.334,653.847 751.167,656.181 750.5,658.5C 749.325,658.281 748.325,658.614 747.5,659.5C 745.992,661.2 744.492,662.866 743,664.5C 739.345,662.967 737.179,660.634 736.5,657.5C 738.524,660.206 741.19,661.539 744.5,661.5C 746.61,658.277 747.61,654.61 747.5,650.5 Z"/></g>
<g><path style="opacity:1" fill="#941e1e" d="M 1553.5,659.5 C 1543.81,659.422 1534.15,659.755 1524.5,660.5C 1529.92,658.971 1535.58,658.305 1541.5,658.5C 1545.68,658.501 1549.68,658.834 1553.5,659.5 Z"/></g>
<g><path style="opacity:1" fill="#f23131" d="M 1553.5,659.5 C 1574.82,661.426 1593.32,669.426 1609,683.5C 1628.2,706.631 1629.53,730.965 1613,756.5C 1603.06,768.885 1591.22,779.051 1577.5,787C 1564.64,793.171 1552.81,801.005 1542,810.5C 1537.91,815.58 1534.25,820.913 1531,826.5C 1528.5,833.488 1526.34,840.488 1524.5,847.5C 1514.18,845.415 1504.35,842.081 1495,837.5C 1496.58,823.55 1501.58,810.883 1510,799.5C 1517.9,790.931 1526.4,783.097 1535.5,776C 1550.87,768.886 1564.7,759.386 1577,747.5C 1580.48,742.376 1583.48,737.043 1586,731.5C 1588.27,722.598 1587.6,713.932 1584,705.5C 1579.73,700.559 1574.9,696.392 1569.5,693C 1554.4,686.406 1538.73,684.739 1522.5,688C 1521.52,678.917 1521.18,669.751 1521.5,660.5C 1522.5,660.5 1523.5,660.5 1524.5,660.5C 1534.15,659.755 1543.81,659.422 1553.5,659.5 Z"/></g>
<g><path style="opacity:1" fill="#f13131" d="M 446.5,663.5 C 488.364,661.698 510.698,681.698 513.5,723.5C 513.257,729.189 512.757,734.856 512,740.5C 507.129,758.319 501.796,775.985 496,793.5C 495.333,802.833 495.333,812.167 496,821.5C 498.26,829.658 500.76,837.658 503.5,845.5C 494.994,847.057 486.994,849.89 479.5,854C 477.833,854.667 476.167,854.667 474.5,854C 464.066,835.908 460.566,816.408 464,795.5C 465.584,789.581 466.918,783.581 468,777.5C 468.667,776.833 469.333,776.167 470,775.5C 472.061,767.55 474.561,759.883 477.5,752.5C 478.297,745.951 479.297,739.451 480.5,733C 477.277,699.142 459.611,688.142 427.5,700C 417.127,705.716 407.961,712.882 400,721.5C 397.074,719.582 394.408,717.248 392,714.5C 388.938,710.187 385.771,706.021 382.5,702C 384.309,698.876 386.476,696.042 389,693.5C 392.85,690.646 396.35,687.479 399.5,684C 404.846,681.997 409.513,678.997 413.5,675C 418.833,672.667 424.167,670.333 429.5,668C 435.432,666.936 441.099,665.436 446.5,663.5 Z"/></g>
<g><path style="opacity:1" fill="#3b0d0c" d="M 708.5,663.5 C 709.552,663.351 710.552,663.517 711.5,664C 706.783,667.706 702.45,671.873 698.5,676.5C 697.167,675.5 697.167,674.5 698.5,673.5C 702.215,670.452 705.548,667.119 708.5,663.5 Z"/></g>
<g><path style="opacity:1" fill="#370c0c" d="M 1975.5,673.5 C 1976.6,672.402 1977.93,672.235 1979.5,673C 1981.02,674.685 1982.68,676.185 1984.5,677.5C 1980.89,678.692 1978.89,677.359 1978.5,673.5C 1977.5,673.5 1976.5,673.5 1975.5,673.5 Z"/></g>
<g><path style="opacity:1" fill="#2b0a09" d="M 104.5,675.5 C 111.508,675.334 118.508,675.5 125.5,676C 127.256,676.202 128.922,676.702 130.5,677.5C 129.667,677.833 128.833,678.167 128,678.5C 120.26,675.999 112.426,675.999 104.5,678.5C 103.438,677.575 103.438,676.575 104.5,675.5 Z"/></g>
<g><path style="opacity:1" fill="#5d1314" d="M 1413.5,674.5 C 1415.05,674.821 1415.71,675.821 1415.5,677.5C 1412.75,677.598 1412.09,676.598 1413.5,674.5 Z"/></g>
<g><path style="opacity:1" fill="#280a08" d="M 1412.5,691.5 C 1413.55,691.351 1414.55,691.517 1415.5,692C 1410.24,697.523 1404.74,702.69 1399,707.5C 1402.14,702.015 1406.47,697.348 1412,693.5C 1412.46,692.906 1412.63,692.239 1412.5,691.5 Z"/></g>
<g><path style="opacity:1" fill="#511011" d="M 1845.5,726.5 C 1847.17,729.507 1847.84,732.84 1847.5,736.5C 1846.42,733.373 1845.75,730.04 1845.5,726.5 Z"/></g>
<g><path style="opacity:1" fill="#6f1717" d="M 1878.5,787.5 C 1878.93,798.058 1878.26,808.391 1876.5,818.5C 1876.9,807.997 1877.57,797.664 1878.5,787.5 Z"/></g>
<g><path style="opacity:1" fill="#8d1c1c" d="M 1030.5,797.5 C 1030.67,814.17 1030.5,830.837 1030,847.5C 1029.82,851.688 1029.32,855.688 1028.5,859.5C 1028.85,838.664 1029.52,817.997 1030.5,797.5 Z"/></g>
<g><path style="opacity:1" fill="#a32121" d="M 1852.5,783.5 C 1853.16,786.482 1853.5,789.648 1853.5,793C 1852.94,803.831 1852.44,814.664 1852,825.5C 1851.72,826.416 1851.22,827.082 1850.5,827.5C 1851.59,812.864 1852.26,798.197 1852.5,783.5 Z"/></g>
<g><path style="opacity:1" fill="#881c1c" d="M 649.5,835.5 C 650.903,838.909 651.57,842.575 651.5,846.5C 650.097,843.091 649.43,839.425 649.5,835.5 Z"/></g>
<g><path style="opacity:1" fill="#f13131" d="M 1486.5,867.5 C 1507.38,867.55 1516.22,877.883 1513,898.5C 1508.42,912.368 1498.92,918.535 1484.5,917C 1462.3,905.572 1459.63,890.572 1476.5,872C 1479.82,870.17 1483.15,868.67 1486.5,867.5 Z"/></g>
<g><path style="opacity:1" fill="#f13131" d="M 501.5,874.5 C 523.404,875.264 532.904,886.598 530,908.5C 523.642,920.926 513.476,925.759 499.5,923C 491.503,920.182 486.336,914.682 484,906.5C 481.16,896.513 483.327,887.846 490.5,880.5C 494.212,878.351 497.879,876.351 501.5,874.5 Z"/></g>
<g><path style="opacity:1" fill="#f23131" d="M 1000.5,905.5 C 1026.96,903.463 1041.29,915.63 1043.5,942C 1043.55,953.179 1039.55,962.513 1031.5,970C 1012.64,982.882 995.477,981.049 980,964.5C 970.125,945.976 971.959,928.809 985.5,913C 990.597,910.451 995.597,907.951 1000.5,905.5 Z"/></g>
<g><path style="opacity:1" fill="#7b1919" d="M 1615.5,1098.5 C 1613.09,1099.77 1610.43,1100.43 1607.5,1100.5C 1609.84,1098.96 1612.5,1098.29 1615.5,1098.5 Z"/></g>
<g><path style="opacity:1" fill="#8e1d1d" d="M 1587.5,1104.5 C 1582.71,1105.72 1577.71,1106.39 1572.5,1106.5C 1577.25,1104.97 1582.25,1104.3 1587.5,1104.5 Z"/></g>
<g><path style="opacity:1" fill="#6c1616" d="M 1497.5,1105.5 C 1503.7,1105.65 1509.7,1106.32 1515.5,1107.5C 1509.26,1107.72 1503.26,1107.06 1497.5,1105.5 Z"/></g>
<g><path style="opacity:1" fill="#821a1a" d="M 389.5,1121.5 C 392.373,1121.8 395.039,1122.47 397.5,1123.5C 394.447,1123.89 391.78,1123.22 389.5,1121.5 Z"/></g>
<g><path style="opacity:1" fill="#941e1e" d="M 1493.5,1131.5 C 1494.62,1130.84 1495.95,1130.51 1497.5,1130.5C 1502.68,1130.93 1507.68,1131.6 1512.5,1132.5C 1506.13,1132.65 1499.8,1132.32 1493.5,1131.5 Z"/></g>
<g><path style="opacity:1" fill="#1e0605" d="M 134.5,1195.5 C 135.497,1195.47 136.164,1195.97 136.5,1197C 135.394,1198.88 135.394,1200.72 136.5,1202.5C 137.167,1201.5 137.833,1200.5 138.5,1199.5C 139.132,1201.74 140.465,1203.4 142.5,1204.5C 139.891,1204.27 137.224,1204.61 134.5,1205.5C 134.649,1204.45 134.483,1203.45 134,1202.5C 131.473,1207.17 132.973,1209.5 138.5,1209.5C 136.234,1210.31 133.9,1210.81 131.5,1211C 132.022,1211.56 132.355,1212.23 132.5,1213C 131.391,1215.05 130.724,1217.21 130.5,1219.5C 128.133,1220.16 126.133,1221.5 124.5,1223.5C 124.167,1223.17 123.833,1222.83 123.5,1222.5C 129.372,1215.45 131.705,1207.45 130.5,1198.5C 131.251,1199.38 131.751,1200.38 132,1201.5C 133.669,1199.83 134.502,1197.83 134.5,1195.5 Z"/></g>
<g><path style="opacity:1" fill="#5b1213" d="M 1425.5,1228.5 C 1426.65,1228.79 1427.32,1229.62 1427.5,1231C 1427.17,1231.83 1426.83,1232.67 1426.5,1233.5C 1425.55,1231.95 1425.21,1230.29 1425.5,1228.5 Z"/></g>
<g><path style="opacity:1" fill="#380b0b" d="M 688.5,1242.5 C 692.078,1242.08 695.411,1243.25 698.5,1246C 695.028,1245.46 691.694,1244.29 688.5,1242.5 Z"/></g>
<g><path style="opacity:1" fill="#280b08" d="M 138.5,1236.5 C 139.239,1236.37 139.906,1236.54 140.5,1237C 136.382,1240.92 133.382,1245.42 131.5,1250.5C 135.039,1252.36 138.039,1255.03 140.5,1258.5C 140.333,1258.83 140.167,1259.17 140,1259.5C 138.429,1257.08 136.263,1255.74 133.5,1255.5C 133.649,1254.45 133.483,1253.45 133,1252.5C 131.197,1251.69 129.697,1250.52 128.5,1249C 132.033,1244.97 135.366,1240.8 138.5,1236.5 Z"/></g>
<g><path style="opacity:1" fill="#200606" d="M 1363.5,1246.5 C 1365.35,1246.27 1366.19,1246.94 1366,1248.5C 1360.03,1253.47 1354.36,1258.8 1349,1264.5C 1347.87,1270.96 1346.87,1270.96 1346,1264.5C 1351.23,1258.73 1356.89,1253.4 1363,1248.5C 1363.46,1247.91 1363.63,1247.24 1363.5,1246.5 Z"/></g>
<g><path style="opacity:1" fill="#390d0c" d="M 1362.5,1293.5 C 1364.09,1292.38 1365.76,1292.55 1367.5,1294C 1369,1296.17 1370.83,1298 1373,1299.5C 1373.98,1300.76 1374.32,1302.09 1374,1303.5C 1370.59,1299.58 1366.76,1296.25 1362.5,1293.5 Z"/></g>
<g><path style="opacity:1" fill="#2c0909" d="M 723.5,1305.5 C 724.812,1307.74 725.478,1310.41 725.5,1313.5C 725.167,1316.17 724.833,1318.83 724.5,1321.5C 723.505,1316.21 723.172,1310.87 723.5,1305.5 Z"/></g>
<g><path style="opacity:1" fill="#f13131" d="M 1143.5,1312.5 C 1151.14,1313.57 1157.64,1316.9 1163,1322.5C 1169,1340.3 1162.83,1350.63 1144.5,1353.5C 1135.81,1353.23 1129.31,1349.23 1125,1341.5C 1121.36,1326.27 1127.2,1317.1 1142.5,1314C 1143.06,1313.62 1143.39,1313.12 1143.5,1312.5 Z"/></g>
<g><path style="opacity:1" fill="#9a1f1f" d="M 772.5,1318.5 C 765.804,1318.39 759.137,1318.72 752.5,1319.5C 756.034,1317.95 759.867,1317.29 764,1317.5C 767.021,1317.5 769.854,1317.84 772.5,1318.5 Z"/></g>
<g><path style="opacity:1" fill="#f13131" d="M 772.5,1318.5 C 780.87,1318.38 789.203,1318.88 797.5,1320C 809.57,1323.6 821.236,1328.27 832.5,1334C 835.705,1338.1 839.705,1341.1 844.5,1343C 848.965,1346.81 852.298,1351.31 854.5,1356.5C 855.822,1356.33 856.989,1356.66 858,1357.5C 860.735,1362.63 863.735,1367.63 867,1372.5C 875.25,1390.7 880.083,1409.7 881.5,1429.5C 881.46,1442.51 881.126,1455.51 880.5,1468.5C 877.248,1497.99 865.248,1522.99 844.5,1543.5C 842.533,1543.74 840.699,1543.41 839,1542.5C 838,1544.15 836.833,1545.82 835.5,1547.5C 834.262,1545.36 832.429,1544.03 830,1543.5C 829.065,1546.1 827.398,1548.1 825,1549.5C 824.075,1548.95 823.242,1548.29 822.5,1547.5C 823.811,1546.74 824.311,1545.74 824,1544.5C 823.333,1543.17 822.667,1543.17 822,1544.5C 821.581,1543.33 820.915,1542.33 820,1541.5C 819.07,1543.55 817.57,1545.05 815.5,1546C 817.929,1546.45 818.096,1547.28 816,1548.5C 815.13,1547.89 814.63,1547.06 814.5,1546C 815.732,1543.85 815.732,1541.68 814.5,1539.5C 815.785,1536.89 816.451,1534.39 816.5,1532C 815.584,1531.72 814.918,1531.22 814.5,1530.5C 828.124,1519.36 837.624,1505.36 843,1488.5C 850.819,1460.41 851.486,1432.08 845,1403.5C 831.084,1358.43 800.584,1339.6 753.5,1347C 738.155,1350.25 725.322,1357.75 715,1369.5C 703.892,1384.29 697.225,1400.96 695,1419.5C 693.111,1436.16 693.111,1452.83 695,1469.5C 696.273,1476.72 698.107,1483.72 700.5,1490.5C 700.26,1493.58 700.593,1496.58 701.5,1499.5C 699.49,1500.07 697.824,1501.07 696.5,1502.5C 698.522,1508.58 701.022,1509.25 704,1504.5C 704.5,1505 705,1505.5 705.5,1506C 704.167,1507 704.167,1508 705.5,1509C 703.595,1509.83 703.261,1510.99 704.5,1512.5C 705.696,1512.15 705.696,1511.65 704.5,1511C 705.877,1509.76 707.21,1509.59 708.5,1510.5C 705.972,1511.52 705.972,1512.68 708.5,1514C 706.975,1515.01 705.308,1515.51 703.5,1515.5C 703.059,1520.44 701.559,1520.77 699,1516.5C 698.517,1517.45 698.351,1518.45 698.5,1519.5C 697.127,1519.66 695.793,1519.49 694.5,1519C 694.833,1518.67 695.167,1518.33 695.5,1518C 693.377,1517.19 691.377,1516.19 689.5,1515C 690.167,1514.67 690.833,1514.33 691.5,1514C 690.234,1513.69 689.067,1513.19 688,1512.5C 686.863,1513.36 685.53,1514.36 684,1515.5C 683.326,1514.42 682.326,1513.75 681,1513.5C 679.45,1513.87 678.283,1514.54 677.5,1515.5C 671.858,1506.42 667.858,1496.59 665.5,1486C 657.505,1451.2 659.338,1417.03 671,1383.5C 684.242,1352.26 707.075,1331.43 739.5,1321C 743.77,1319.92 748.103,1319.42 752.5,1319.5C 759.137,1318.72 765.804,1318.39 772.5,1318.5 Z"/></g>
<g><path style="opacity:1" fill="#010000" d="M 814.5,1530.5 C 791.462,1543.55 767.129,1546.05 741.5,1538C 721.149,1527.82 707.482,1511.99 700.5,1490.5C 698.107,1483.72 696.273,1476.72 695,1469.5C 693.111,1452.83 693.111,1436.16 695,1419.5C 697.225,1400.96 703.892,1384.29 715,1369.5C 725.322,1357.75 738.155,1350.25 753.5,1347C 800.584,1339.6 831.084,1358.43 845,1403.5C 851.486,1432.08 850.819,1460.41 843,1488.5C 837.624,1505.36 828.124,1519.36 814.5,1530.5 Z"/></g>
<g><path style="opacity:1" fill="#320c0b" d="M 625.5,1339.5 C 626.497,1339.47 627.164,1339.97 627.5,1341C 626.105,1342.72 625.439,1344.72 625.5,1347C 626.264,1350.53 626.764,1354.03 627,1357.5C 622.943,1351.82 622.443,1345.82 625.5,1339.5 Z"/></g>
<g><path style="opacity:1" fill="#f43131" d="M 1155.5,1388.5 C 1156.5,1388.5 1157.5,1388.5 1158.5,1388.5C 1158.5,1447.17 1158.5,1505.83 1158.5,1564.5C 1149.17,1564.5 1139.83,1564.5 1130.5,1564.5C 1130.56,1507.97 1130.73,1451.31 1131,1394.5C 1131.5,1394 1132,1393.5 1132.5,1393C 1140.45,1392.09 1148.12,1390.59 1155.5,1388.5 Z"/></g>
<g><path style="opacity:1" fill="#f03131" d="M 1227.5,1392.5 C 1267.4,1393.4 1307.4,1393.74 1347.5,1393.5C 1347.67,1399.51 1347.5,1405.51 1347,1411.5C 1313.34,1454.33 1279.84,1497.33 1246.5,1540.5C 1281.05,1541.79 1315.38,1541.79 1349.5,1540.5C 1350.09,1540.71 1350.59,1541.04 1351,1541.5C 1351.5,1549.16 1351.67,1556.83 1351.5,1564.5C 1303.17,1564.5 1254.83,1564.5 1206.5,1564.5C 1206.33,1559.16 1206.5,1553.82 1207,1548.5C 1239.3,1505.5 1271.8,1462.83 1304.5,1420.5C 1305.25,1419.26 1305.58,1417.93 1305.5,1416.5C 1274.52,1417.63 1243.52,1417.8 1212.5,1417C 1211.52,1409.25 1211.18,1401.42 1211.5,1393.5C 1217.03,1393.82 1222.36,1393.49 1227.5,1392.5 Z"/></g>
<g><path style="opacity:1" fill="#f03131" d="M 930.5,1393.5 C 940.083,1393.18 949.583,1393.51 959,1394.5C 959.033,1437.53 959.699,1480.53 961,1523.5C 962.743,1531.5 967.243,1537.33 974.5,1541C 984.676,1545.15 995.009,1545.49 1005.5,1542C 1019.07,1537.93 1031.07,1531.09 1041.5,1521.5C 1042.33,1479.54 1042.83,1437.54 1043,1395.5C 1047.58,1394.2 1052.42,1393.53 1057.5,1393.5C 1062.41,1393.51 1067.25,1393.85 1072,1394.5C 1072.83,1451.07 1072.66,1507.57 1071.5,1564C 1062.17,1564.67 1052.83,1564.67 1043.5,1564C 1042.69,1558.58 1042.19,1553.08 1042,1547.5C 1021.53,1565.18 997.697,1572.35 970.5,1569C 960.358,1566.01 951.525,1560.85 944,1553.5C 937.683,1545.23 933.683,1535.9 932,1525.5C 930.586,1481.52 930.086,1437.52 930.5,1393.5 Z"/></g>
<g><path style="opacity:1" fill="#831a1a" d="M 881.5,1429.5 C 882.832,1442.53 882.499,1455.53 880.5,1468.5C 881.126,1455.51 881.46,1442.51 881.5,1429.5 Z"/></g>
<g><path style="opacity:1" fill="#ed3030" d="M 700.5,1490.5 C 707.482,1511.99 721.149,1527.82 741.5,1538C 767.129,1546.05 791.462,1543.55 814.5,1530.5C 814.918,1531.22 815.584,1531.72 816.5,1532C 816.451,1534.39 815.785,1536.89 814.5,1539.5C 815.732,1541.68 815.732,1543.85 814.5,1546C 814.63,1547.06 815.13,1547.89 816,1548.5C 818.096,1547.28 817.929,1546.45 815.5,1546C 817.57,1545.05 819.07,1543.55 820,1541.5C 820.915,1542.33 821.581,1543.33 822,1544.5C 822.667,1543.17 823.333,1543.17 824,1544.5C 824.311,1545.74 823.811,1546.74 822.5,1547.5C 823.242,1548.29 824.075,1548.95 825,1549.5C 827.398,1548.1 829.065,1546.1 830,1543.5C 832.429,1544.03 834.262,1545.36 835.5,1547.5C 836.833,1545.82 838,1544.15 839,1542.5C 840.699,1543.41 842.533,1543.74 844.5,1543.5C 830.717,1555.73 814.717,1563.73 796.5,1567.5C 806.13,1579.47 815.796,1591.47 825.5,1603.5C 825.565,1603.94 825.399,1604.27 825,1604.5C 823.571,1601.64 821.737,1601.14 819.5,1603C 820.993,1604.16 820.826,1604.99 819,1605.5C 819.027,1604.21 818.027,1603.21 816,1602.5C 815.577,1603.96 814.744,1604.46 813.5,1604C 813.917,1598.39 812.917,1598.22 810.5,1603.5C 807.833,1602.5 807.833,1601.5 810.5,1600.5C 810.167,1600.17 809.833,1599.83 809.5,1599.5C 808.28,1600.71 807.113,1600.71 806,1599.5C 804.143,1603.38 802.81,1603.05 802,1598.5C 799.667,1602.5 797.333,1602.5 795,1598.5C 794.692,1599.31 794.192,1599.97 793.5,1600.5C 790.853,1600.07 788.853,1598.74 787.5,1596.5C 786.692,1596.81 786.025,1597.31 785.5,1598C 786.791,1599.29 786.791,1600.46 785.5,1601.5C 777.5,1590.83 769.5,1580.17 761.5,1569.5C 757.081,1568.03 752.414,1567.36 747.5,1567.5C 719.451,1561.99 697.284,1547.32 681,1523.5C 679.924,1520.76 678.757,1518.1 677.5,1515.5C 678.283,1514.54 679.45,1513.87 681,1513.5C 682.326,1513.75 683.326,1514.42 684,1515.5C 685.53,1514.36 686.863,1513.36 688,1512.5C 689.067,1513.19 690.234,1513.69 691.5,1514C 690.833,1514.33 690.167,1514.67 689.5,1515C 691.377,1516.19 693.377,1517.19 695.5,1518C 695.167,1518.33 694.833,1518.67 694.5,1519C 695.793,1519.49 697.127,1519.66 698.5,1519.5C 698.351,1518.45 698.517,1517.45 699,1516.5C 701.559,1520.77 703.059,1520.44 703.5,1515.5C 705.308,1515.51 706.975,1515.01 708.5,1514C 705.972,1512.68 705.972,1511.52 708.5,1510.5C 707.21,1509.59 705.877,1509.76 704.5,1511C 705.696,1511.65 705.696,1512.15 704.5,1512.5C 703.261,1510.99 703.595,1509.83 705.5,1509C 704.167,1508 704.167,1507 705.5,1506C 705,1505.5 704.5,1505 704,1504.5C 701.022,1509.25 698.522,1508.58 696.5,1502.5C 697.824,1501.07 699.49,1500.07 701.5,1499.5C 700.593,1496.58 700.26,1493.58 700.5,1490.5 Z"/></g>
<g><path style="opacity:1" fill="#8a1c1c" d="M 747.5,1567.5 C 752.414,1567.36 757.081,1568.03 761.5,1569.5C 756.547,1569.88 751.881,1569.21 747.5,1567.5 Z"/></g>
<g><path style="opacity:1" fill="#dc2c2c" d="M 825.5,1603.5 C 833.868,1611.69 843.535,1617.85 854.5,1622C 860.491,1622.5 866.491,1622.67 872.5,1622.5C 872.815,1630.42 872.482,1638.25 871.5,1646C 861.274,1648.84 850.941,1649.17 840.5,1647C 832.985,1643.38 825.652,1639.38 818.5,1635C 806.601,1624.6 795.601,1613.44 785.5,1601.5C 786.791,1600.46 786.791,1599.29 785.5,1598C 786.025,1597.31 786.692,1596.81 787.5,1596.5C 788.853,1598.74 790.853,1600.07 793.5,1600.5C 794.192,1599.97 794.692,1599.31 795,1598.5C 797.333,1602.5 799.667,1602.5 802,1598.5C 802.81,1603.05 804.143,1603.38 806,1599.5C 807.113,1600.71 808.28,1600.71 809.5,1599.5C 809.833,1599.83 810.167,1600.17 810.5,1600.5C 807.833,1601.5 807.833,1602.5 810.5,1603.5C 812.917,1598.22 813.917,1598.39 813.5,1604C 814.744,1604.46 815.577,1603.96 816,1602.5C 818.027,1603.21 819.027,1604.21 819,1605.5C 820.826,1604.99 820.993,1604.16 819.5,1603C 821.737,1601.14 823.571,1601.64 825,1604.5C 825.399,1604.27 825.565,1603.94 825.5,1603.5 Z"/></g>
</svg>
