<?xml version="1.0" encoding="UTF-8"?>
<!DOCTYPE svg PUBLIC "-//W3C//DTD SVG 1.1//EN" "http://www.w3.org/Graphics/SVG/1.1/DTD/svg11.dtd">
<svg xmlns="http://www.w3.org/2000/svg" version="1.1" width="400px" height="400px" style="shape-rendering:geometricPrecision; text-rendering:geometricPrecision; image-rendering:optimizeQuality; fill-rule:evenodd; clip-rule:evenodd" xmlns:xlink="http://www.w3.org/1999/xlink">
<g><path style="opacity:1" fill="#010000" d="M -0.5,-0.5 C 132.833,-0.5 266.167,-0.5 399.5,-0.5C 399.5,132.833 399.5,266.167 399.5,399.5C 266.167,399.5 132.833,399.5 -0.5,399.5C -0.5,266.167 -0.5,132.833 -0.5,-0.5 Z"/></g>
<g><path style="opacity:1" fill="#d42b2b" d="M 210.5,82.5 C 202.107,82.8304 193.773,82.3304 185.5,81C 194.167,80.3333 202.833,80.3333 211.5,81C 210.944,81.3826 210.611,81.8826 210.5,82.5 Z"/></g>
<g><path style="opacity:1" fill="#ef3130" d="M 104.5,90.5 C 104.062,90.4346 103.728,90.6012 103.5,91C 106.063,94.9394 109.396,98.106 113.5,100.5C 114.429,101.689 114.762,103.022 114.5,104.5C 116.216,104.629 117.883,104.962 119.5,105.5C 120.793,106.842 121.626,108.509 122,110.5C 124.039,108.126 126.372,106.126 129,104.5C 129.5,105 130,105.5 130.5,106C 117.663,116.325 107.663,128.825 100.5,143.5C 102.099,143.768 103.432,143.434 104.5,142.5C 106.103,141.323 107.436,141.489 108.5,143C 107.949,144.398 107.616,145.732 107.5,147C 108.167,147.333 108.833,147.667 109.5,148C 107.915,148.085 106.582,148.251 105.5,148.5C 108.527,149.857 111.36,149.524 114,147.5C 142.286,148.829 170.786,149.496 199.5,149.5C 227.833,149.333 256.167,149.167 284.5,149C 263,112.579 231,95.5795 188.5,98C 183.226,97.187 183.226,96.687 188.5,96.5C 231.622,93.7316 264.288,111.065 286.5,148.5C 288.074,149.631 289.741,149.798 291.5,149C 290.923,147.286 289.423,145.786 287,144.5C 286.383,143.551 286.549,142.718 287.5,142C 286.552,141.517 285.552,141.351 284.5,141.5C 284.854,139.459 284.854,137.626 284.5,136C 288.922,133.584 292.589,134.417 295.5,138.5C 287.552,123.046 276.218,110.546 261.5,101C 245.828,91.0045 228.828,84.8379 210.5,82.5C 233.552,83.1307 253.885,90.964 271.5,106C 275.373,106.27 279.206,106.77 283,107.5C 285.085,106.876 286.918,105.876 288.5,104.5C 288.5,105.167 288.5,105.833 288.5,106.5C 291.469,105.332 291.802,103.999 289.5,102.5C 290.429,101.685 291.429,100.852 292.5,100C 289.968,99.3878 289.135,97.8878 290,95.5C 292.381,96.435 294.881,96.7683 297.5,96.5C 296.391,97.29 295.058,97.79 293.5,98C 295.971,98.7063 298.305,98.373 300.5,97C 299.906,96.5357 299.239,96.369 298.5,96.5C 297.77,95.2876 296.77,94.2876 295.5,93.5C 297.731,93.1133 300.064,92.9466 302.5,93C 298.576,92.2015 298.576,91.7015 302.5,91.5C 303.894,91.6207 305.228,91.954 306.5,92.5C 307.189,90.6619 307.522,88.9952 307.5,87.5C 308.298,89.0777 308.798,90.7444 309,92.5C 310.596,93.0485 311.763,92.3818 312.5,90.5C 313.794,93.3522 315.294,93.6856 317,91.5C 320.265,94.7878 324.098,97.4545 328.5,99.5C 329.271,101.862 330.105,104.196 331,106.5C 334.167,108.333 336.667,110.833 338.5,114C 335.984,116.683 333.317,119.183 330.5,121.5C 329.758,119.65 328.758,118.984 327.5,119.5C 329.561,114.397 328.061,112.73 323,114.5C 322.167,116.167 321.333,117.833 320.5,119.5C 322.138,120.958 323.805,121.292 325.5,120.5C 329.245,123.627 329.412,126.961 326,130.5C 324.342,128.677 322.509,127.01 320.5,125.5C 319.328,125.919 318.328,126.585 317.5,127.5C 316.235,132.961 314.568,138.295 312.5,143.5C 312.833,143.833 313.167,144.167 313.5,144.5C 318.828,144.035 324.328,143.368 330,142.5C 347.478,143.049 364.978,143.882 382.5,145C 371.787,145.189 361.12,145.689 350.5,146.5C 343.953,145.743 337.453,145.41 331,145.5C 324.555,146.149 318.055,146.816 311.5,147.5C 311.291,148.086 310.957,148.586 310.5,149C 332.831,149.5 355.164,149.667 377.5,149.5C 377.5,151.167 377.5,152.833 377.5,154.5C 376.272,155.306 375.272,156.306 374.5,157.5C 374.5,156.167 374.5,154.833 374.5,153.5C 258.167,153.5 141.833,153.5 25.5,153.5C 25.5,184.833 25.5,216.167 25.5,247.5C 141.5,247.5 257.5,247.5 373.5,247.5C 371.498,249.27 369.164,250.603 366.5,251.5C 346.156,251.167 325.822,251.5 305.5,252.5C 305.709,253.086 306.043,253.586 306.5,254C 329.5,254.333 352.5,254.667 375.5,255C 352.857,256.09 330.191,256.923 307.5,257.5C 313.193,262.861 318.86,268.195 324.5,273.5C 327.251,271.707 330.084,270.041 333,268.5C 333.096,272.001 332.596,275.334 331.5,278.5C 332.251,279.573 333.251,279.74 334.5,279C 343.354,271.711 353.354,268.711 364.5,270C 355.423,270.244 347.59,273.411 341,279.5C 340.219,280.944 340.386,282.277 341.5,283.5C 347.38,281.677 353.38,281.177 359.5,282C 355.886,282.945 352.219,283.612 348.5,284C 345.966,284.516 343.8,285.683 342,287.5C 340.835,295.163 342.335,302.163 346.5,308.5C 346.167,308.5 345.833,308.5 345.5,308.5C 340.499,302.826 337.332,296.16 336,288.5C 334.974,285.307 332.808,283.974 329.5,284.5C 327.349,293.456 324.682,302.289 321.5,311C 321.784,312.956 321.784,315.123 321.5,317.5C 315.359,318.856 312.859,316.189 314,309.5C 313.02,311.059 312.187,312.726 311.5,314.5C 310.749,307.72 308.749,301.386 305.5,295.5C 306.219,292.687 306.886,289.854 307.5,287C 306.676,283.942 305.342,283.776 303.5,286.5C 298.349,285.245 293.183,284.245 288,283.5C 285.907,284.246 283.907,284.579 282,284.5C 280.272,283.648 280.105,282.648 281.5,281.5C 278.838,280.361 276.171,280.194 273.5,281C 274.598,280.23 274.598,279.397 273.5,278.5C 273.5,278.167 273.5,277.833 273.5,277.5C 273.5,276.5 273.5,275.5 273.5,274.5C 274.5,274.5 275.5,274.5 276.5,274.5C 276.244,272.088 277.244,270.421 279.5,269.5C 279.291,268.914 278.957,268.414 278.5,268C 284.906,265.573 287.572,267.739 286.5,274.5C 292.591,268.598 297.591,261.265 301.5,252.5C 300.47,252.446 299.303,252.112 298,251.5C 297.283,252.044 296.783,252.711 296.5,253.5C 299.018,254.759 298.852,256.093 296,257.5C 295.667,257.167 295.333,256.833 295,256.5C 292.928,259.915 291.761,259.915 291.5,256.5C 289.541,256.756 288.207,257.256 287.5,258C 286.742,256.636 287.242,255.469 289,254.5C 290.049,255.517 291.216,255.684 292.5,255C 290.694,254.19 289.194,253.024 288,251.5C 260.349,294.918 221.516,311.085 171.5,300C 145.359,291.183 125.192,275.016 111,251.5C 109.877,253.1 108.377,254.1 106.5,254.5C 106.44,253.957 106.107,253.624 105.5,253.5C 104.614,254.325 104.281,255.325 104.5,256.5C 103.5,256.5 102.5,256.5 101.5,256.5C 101.36,254.876 102.027,253.71 103.5,253C 103,252.5 102.5,252 102,251.5C 100.467,251.944 98.9667,252.277 97.5,252.5C 101.28,261.086 106.28,268.753 112.5,275.5C 120.069,285.901 129.402,294.401 140.5,301C 143.071,302.454 145.738,303.62 148.5,304.5C 164.376,313.428 181.543,317.761 200,317.5C 207.791,317.648 215.291,316.648 222.5,314.5C 224.565,314.517 226.565,314.85 228.5,315.5C 186.601,325.358 149.934,315.524 118.5,286C 117.101,285.405 115.768,285.572 114.5,286.5C 113.614,285.675 113.281,284.675 113.5,283.5C 111.46,285.195 109.126,286.529 106.5,287.5C 106.709,288.086 107.043,288.586 107.5,289C 104.443,289.256 101.443,289.756 98.5,290.5C 97.7189,289.271 97.2189,287.938 97,286.5C 94.5175,289.521 95.0175,291.854 98.5,293.5C 88.5155,294.278 85.5155,299.112 89.5,308C 87.7339,309.698 85.7339,311.031 83.5,312C 80.1416,312.373 79.8083,311.539 82.5,309.5C 81.9984,308.284 81.6651,307.117 81.5,306C 84.1667,305.333 84.1667,304.667 81.5,304C 82.5171,302.951 82.6838,301.784 82,300.5C 80.9125,302.932 80.4125,302.598 80.5,299.5C 81.8333,298.833 81.8333,298.167 80.5,297.5C 79.6857,295.727 78.3524,295.227 76.5,296C 78.9574,297.512 78.9574,298.846 76.5,300C 79.1667,301.333 79.1667,302.667 76.5,304C 77.1667,304.333 77.8333,304.667 78.5,305C 74.6603,306.64 74.6603,308.14 78.5,309.5C 77.624,310.251 76.624,310.751 75.5,311C 76.8333,311.333 78.1667,311.667 79.5,312C 74.7941,314.682 69.7941,316.849 64.5,318.5C 63.7918,312.813 63.1251,307.146 62.5,301.5C 64.1498,298.652 63.8164,296.152 61.5,294C 62.2822,291.26 62.7822,288.426 63,285.5C 63.3333,286.5 63.6667,287.5 64,288.5C 67.7275,281.628 68.3942,275.295 66,269.5C 68.7716,269.579 71.4383,269.913 74,270.5C 74.7504,269.874 75.5838,269.374 76.5,269C 74.7174,267.933 74.2174,266.433 75,264.5C 75.2784,265.416 75.7784,266.082 76.5,266.5C 73.9745,258.381 75.4745,257.048 81,262.5C 81.6897,260.65 82.8564,259.316 84.5,258.5C 62.4891,256.875 40.4891,255.875 18.5,255.5C 18.5,255.167 18.5,254.833 18.5,254.5C 40.1769,254.833 61.8436,254.5 83.5,253.5C 83.7093,252.914 84.0426,252.414 84.5,252C 64.2603,251.827 44.0936,251.327 24,250.5C 23.586,250.957 23.086,251.291 22.5,251.5C 22.1422,238.103 21.1422,224.936 19.5,212C 21.4817,191.399 22.1484,170.566 21.5,149.5C 42.6437,149.247 63.6437,149.247 84.5,149.5C 84.5,148.5 84.5,147.5 84.5,146.5C 62.0758,145.989 39.7424,145.989 17.5,146.5C 17.921,181.307 17.921,215.973 17.5,250.5C 16.8333,251.5 16.1667,252.5 15.5,253.5C 14.9435,217.304 15.1101,180.97 16,144.5C 38.2872,144.026 60.7872,143.692 83.5,143.5C 85.511,133.106 92.3443,123.773 104,115.5C 105.702,111.134 104.368,107.8 100,105.5C 99.1268,105.735 98.2935,106.069 97.5,106.5C 95.5118,101.448 92.1785,100.281 87.5,103C 90.4688,103.299 91.9688,104.799 92,107.5C 90.8831,107.335 89.7164,107.002 88.5,106.5C 85.0482,107.726 81.7148,109.226 78.5,111C 80.8333,111.333 83.1667,111.667 85.5,112C 81.5357,113.663 77.5357,115.33 73.5,117C 76.2441,116.009 78.9107,116.343 81.5,118C 77.7831,119.18 74.1165,120.513 70.5,122C 69.2532,123.458 69.2532,124.958 70.5,126.5C 69.624,127.251 68.624,127.751 67.5,128C 68.6956,128.654 68.6956,129.154 67.5,129.5C 66.2956,126.585 64.2956,124.419 61.5,123C 68.0522,122.453 68.0522,121.62 61.5,120.5C 61.5,119.833 61.5,119.167 61.5,118.5C 63.3519,119.089 65.1852,119.756 67,120.5C 67.3114,119.258 66.8114,118.258 65.5,117.5C 67.3501,115.482 69.3501,113.649 71.5,112C 71.1667,111.667 70.8333,111.333 70.5,111C 73.341,112.012 74.6744,110.845 74.5,107.5C 73.5,107.5 72.5,107.5 71.5,107.5C 72.6899,104.094 72.0233,103.761 69.5,106.5C 67.0673,106.786 67.0673,107.452 69.5,108.5C 67.176,111.138 65.3426,114.138 64,117.5C 62.7724,114.358 63.6058,111.525 66.5,109C 63.7277,109.052 61.3944,110.219 59.5,112.5C 59.7093,113.086 60.0426,113.586 60.5,114C 59.1667,114 57.8333,114 56.5,114C 57.5171,115.049 57.6838,116.216 57,117.5C 56.1627,115.993 54.9961,115.493 53.5,116C 54.5171,117.049 54.6838,118.216 54,119.5C 52.3149,117.983 50.8149,116.316 49.5,114.5C 50.0402,113.252 50.7069,112.085 51.5,111C 58.4447,107.703 63.4447,103.037 66.5,97C 70.3634,95.2678 74.3634,93.9344 78.5,93C 82.5331,91.6515 85.8664,89.3181 88.5,86C 92.6546,84.7993 96.6546,83.2993 100.5,81.5C 101.506,81.9377 101.506,82.6043 100.5,83.5C 98.3211,84.7567 96.3211,86.2567 94.5,88C 96.9599,87.2387 99.4599,87.4054 102,88.5C 103.376,88.6842 104.209,89.3509 104.5,90.5 Z"/></g>
<g><path style="opacity:1" fill="#d12a2a" d="M 174.5,83.5 C 176.435,82.291 178.435,82.4577 180.5,84C 178.512,84.1805 176.512,84.0138 174.5,83.5 Z"/></g>
<g><path style="opacity:1" fill="#c52828" d="M 179.5,82.5 C 182.377,81.4824 185.377,81.6491 188.5,83C 185.445,83.6342 182.445,83.4675 179.5,82.5 Z"/></g>
<g><path style="opacity:1" fill="#d22b2b" d="M 170.5,84.5 C 170.735,83.9033 171.235,83.5699 172,83.5C 173.5,84 175,84.5 176.5,85C 174.455,85.4901 172.455,85.3235 170.5,84.5 Z"/></g>
<g><path style="opacity:1" fill="#ef3131" d="M 219.5,86.5 C 222.226,86.2639 224.559,87.0972 226.5,89C 224.144,89.1554 221.811,89.1554 219.5,89C 220.428,89.3879 221.095,90.0546 221.5,91C 220.004,97.9935 218.004,98.1602 215.5,91.5C 216.127,89.2127 217.46,87.546 219.5,86.5 Z"/></g>
<g><path style="opacity:1" fill="#681917" d="M 163.5,85.5 C 165.564,85.687 167.564,86.187 169.5,87C 166.607,87.6309 163.774,88.4642 161,89.5C 159.941,89.3699 159.108,88.8699 158.5,88C 160.315,87.2432 161.981,86.4098 163.5,85.5 Z"/></g>
<g><path style="opacity:1" fill="#e32e2e" d="M 190.5,84.5 C 198.32,85.4837 198.32,86.3171 190.5,87C 192.907,89.3626 193.074,91.8626 191,94.5C 188.947,93.7335 187.447,92.4002 186.5,90.5C 187.198,89.1374 187.198,87.9707 186.5,87C 188.066,86.3918 189.4,85.5585 190.5,84.5 Z"/></g>
<g><path style="opacity:1" fill="#e4302f" d="M 203.5,84.5 C 208.155,83.9929 211.488,85.8263 213.5,90C 212.237,92.3858 210.403,94.2192 208,95.5C 207.667,94.5 207.333,93.5 207,92.5C 205.637,94.7843 204.137,94.951 202.5,93C 204.087,92.1376 205.754,91.4709 207.5,91C 206.167,90 206.167,89 207.5,88C 205.681,87.2597 204.348,86.0931 203.5,84.5 Z"/></g>
<g><path style="opacity:1" fill="#df2f2e" d="M 198.5,84.5 C 199.661,86.406 201.661,87.906 204.5,89C 202.448,89.9299 200.948,91.4299 200,93.5C 199.077,92.2412 198.243,90.9079 197.5,89.5C 196.325,90.8549 195.325,90.6883 194.5,89C 195.623,87.9563 196.956,87.2896 198.5,87C 197.402,86.2303 197.402,85.397 198.5,84.5 Z"/></g>
<g><path style="opacity:1" fill="#f43231" d="M 229.5,92.5 C 228.508,92.3284 227.842,92.6618 227.5,93.5C 226.448,93.6495 225.448,93.4828 224.5,93C 223.167,92.3333 223.167,91.6667 224.5,91C 225.449,90.3828 226.282,90.5494 227,91.5C 229.69,87.4581 230.523,87.7914 229.5,92.5 Z"/></g>
<g><path style="opacity:1" fill="#9b2020" d="M 312.5,90.5 C 311.105,89.3523 311.272,88.3523 313,87.5C 313.74,88.7494 313.573,89.7494 312.5,90.5 Z"/></g>
<g><path style="opacity:1" fill="#ee3030" d="M 174.5,94.5 C 175.117,94.6107 175.617,94.944 176,95.5C 176.5,94.3333 177.333,93.5 178.5,93C 177.273,91.4126 177.606,90.0793 179.5,89C 178.197,88.7902 176.864,88.9569 175.5,89.5C 174.833,89.1667 174.167,88.8333 173.5,88.5C 178.592,85.2178 182.259,86.3845 184.5,92C 183.494,95.9415 181.661,96.7749 179,94.5C 177.285,98.4658 175.785,98.4658 174.5,94.5 Z"/></g>
<g><path style="opacity:1" fill="#f43131" d="M 232.5,91.5 C 237.192,89.954 240.192,91.7873 241.5,97C 239.743,99.0388 237.576,100.539 235,101.5C 234.667,100.5 234.333,99.5 234,98.5C 231.499,100.056 229.999,99.3892 229.5,96.5C 231.071,97.1969 232.571,97.5302 234,97.5C 234.483,96.552 234.649,95.552 234.5,94.5C 236.355,94.728 237.188,94.0613 237,92.5C 236.667,92.8333 236.333,93.1667 236,93.5C 234.887,92.695 233.721,92.0283 232.5,91.5 Z"/></g>
<g><path style="opacity:1" fill="#d52e2c" d="M 232.5,91.5 C 232.5,92.5 232.5,93.5 232.5,94.5C 230.821,94.2852 229.821,94.9519 229.5,96.5C 228.504,96.4142 227.671,96.7476 227,97.5C 226.626,96.5838 226.126,95.7504 225.5,95C 226.416,94.7216 227.082,94.2216 227.5,93.5C 227.842,92.6618 228.508,92.3284 229.5,92.5C 230.609,92.4431 231.609,92.1098 232.5,91.5 Z"/></g>
<g><path style="opacity:1" fill="#000000" d="M 232.5,91.5 C 233.721,92.0283 234.887,92.695 236,93.5C 236.333,93.1667 236.667,92.8333 237,92.5C 237.188,94.0613 236.355,94.728 234.5,94.5C 234.649,95.552 234.483,96.552 234,97.5C 232.571,97.5302 231.071,97.1969 229.5,96.5C 229.821,94.9519 230.821,94.2852 232.5,94.5C 232.5,93.5 232.5,92.5 232.5,91.5 Z"/></g>
<g><path style="opacity:1" fill="#000000" d="M 90.5,93.5 C 93.1777,92.0905 95.8443,92.2572 98.5,94C 98,94.5 97.5,95 97,95.5C 95.2458,93.75 93.0792,93.0833 90.5,93.5 Z"/></g>
<g><path style="opacity:1" fill="#aa2323" d="M 104.5,90.5 C 107.691,91.0922 110.691,92.2589 113.5,94C 112.167,94.6667 110.833,95.3333 109.5,96C 110.108,96.8699 110.941,97.3699 112,97.5C 115.078,95.889 116.744,96.889 117,100.5C 119.734,101.362 119.901,102.195 117.5,103C 118.381,103.708 119.047,104.542 119.5,105.5C 117.883,104.962 116.216,104.629 114.5,104.5C 114.762,103.022 114.429,101.689 113.5,100.5C 109.396,98.106 106.063,94.9394 103.5,91C 103.728,90.6012 104.062,90.4346 104.5,90.5 Z"/></g>
<g><path style="opacity:1" fill="#e02f2e" d="M 174.5,94.5 C 173.685,95.4293 172.852,96.4293 172,97.5C 170.814,95.3234 168.981,94.3234 166.5,94.5C 166.649,93.448 166.483,92.448 166,91.5C 164.491,92.0897 162.991,92.7564 161.5,93.5C 162.325,94.3857 163.325,94.719 164.5,94.5C 164.663,96.8568 164.497,99.1902 164,101.5C 162.416,100.139 160.582,99.472 158.5,99.5C 157.97,92.2012 161.137,89.5345 168,91.5C 168.483,90.552 168.649,89.552 168.5,88.5C 170.783,88.6079 172.783,89.4412 174.5,91C 175.171,91.9862 175.171,93.1529 174.5,94.5 Z"/></g>
<g><path style="opacity:1" fill="#e92f2f" d="M 193.5,91.5 C 194.975,92.262 196.309,92.5953 197.5,92.5C 195.099,95.4127 193.766,95.0794 193.5,91.5 Z"/></g>
<g><path style="opacity:1" fill="#601615" d="M 148.5,91.5 C 149.922,91.7086 151.255,92.2086 152.5,93C 150.579,93.3603 148.912,94.1936 147.5,95.5C 147.167,95.3333 146.833,95.1667 146.5,95C 147.305,93.8873 147.972,92.7206 148.5,91.5 Z"/></g>
<g><path style="opacity:1" fill="#f43231" d="M 221.5,93.5 C 222.309,94.4687 223.309,95.3021 224.5,96C 223.552,96.4828 222.552,96.6495 221.5,96.5C 221.5,95.5 221.5,94.5 221.5,93.5 Z"/></g>
<g><path style="opacity:1" fill="#000000" d="M 80.5,94.5 C 81.7733,95.0768 81.7733,95.7435 80.5,96.5C 79.537,96.0302 79.537,95.3635 80.5,94.5 Z"/></g>
<g><path style="opacity:1" fill="#591413" d="M 141.5,95.5 C 145.051,96.1855 145.217,97.1855 142,98.5C 141.25,97.8742 140.416,97.3742 139.5,97C 140.416,96.7216 141.082,96.2216 141.5,95.5 Z"/></g>
<g><path style="opacity:1" fill="#0b0201" d="M 305.5,96.5 C 305.735,95.9033 306.235,95.5699 307,95.5C 309.464,96.1608 311.964,96.6608 314.5,97C 312.603,98.1097 310.77,98.2764 309,97.5C 309.333,99.5 309.667,101.5 310,103.5C 308.476,101.102 306.976,98.7686 305.5,96.5 Z"/></g>
<g><path style="opacity:1" fill="#e22e2e" d="M 165.5,96.5 C 166.975,97.262 168.309,97.5953 169.5,97.5C 168.68,99.1112 167.346,99.7778 165.5,99.5C 165.5,98.5 165.5,97.5 165.5,96.5 Z"/></g>
<g><path style="opacity:1" fill="#ea3130" d="M 247.5,103.5 C 246.25,103.577 245.417,104.244 245,105.5C 240.441,98.6612 242.607,95.8279 251.5,97C 253.007,97.8373 253.507,99.0039 253,100.5C 249.265,97.3227 247.432,98.3227 247.5,103.5 Z"/></g>
<g><path style="opacity:1" fill="#000000" d="M 71.5,97.5 C 73.8418,97.7748 73.8418,98.6081 71.5,100C 70.2411,100.982 68.9078,101.315 67.5,101C 68.7305,99.5952 70.0639,98.4286 71.5,97.5 Z"/></g>
<g><path style="opacity:1" fill="#f43231" d="M 179.5,98.5 C 179.917,97.8761 180.584,97.5427 181.5,97.5C 183.5,98 185.5,98.5 187.5,99C 184.808,99.4298 182.141,99.2631 179.5,98.5 Z"/></g>
<g><path style="opacity:1" fill="#6a1c19" d="M 297.5,96.5 C 297.833,96.5 298.167,96.5 298.5,96.5C 299.239,96.369 299.906,96.5357 300.5,97C 298.305,98.373 295.971,98.7063 293.5,98C 295.058,97.79 296.391,97.29 297.5,96.5 Z"/></g>
<g><path style="opacity:1" fill="#000000" d="M 78.5,98.5 C 79.525,98.8966 79.6917,99.5632 79,100.5C 78.1627,102.007 76.9961,102.507 75.5,102C 76.7101,100.961 77.7101,99.7942 78.5,98.5 Z"/></g>
<g><path style="opacity:1" fill="#f43232" d="M 175.5,99.5 C 177.089,98.3789 178.756,98.5456 180.5,100C 178.803,100.384 177.137,100.218 175.5,99.5 Z"/></g>
<g><path style="opacity:1" fill="#ed3030" d="M 151.5,105.5 C 151.082,104.778 150.416,104.278 149.5,104C 150.308,103.692 150.975,103.192 151.5,102.5C 150.67,100.865 150.503,99.1984 151,97.5C 149.758,98.8721 148.258,99.8721 146.5,100.5C 145.289,99.7261 145.289,98.8928 146.5,98C 151.291,95.2908 154.958,96.2908 157.5,101C 156.624,102.586 155.624,104.086 154.5,105.5C 153.808,104.975 153.308,104.308 153,103.5C 152.722,104.416 152.222,105.082 151.5,105.5 Z"/></g>
<g><path style="opacity:1" fill="#f23131" d="M 171.5,100.5 C 173.089,99.3789 174.756,99.5456 176.5,101C 174.803,101.384 173.137,101.218 171.5,100.5 Z"/></g>
<g><path style="opacity:1" fill="#f43131" d="M 247.5,103.5 C 248.8,104.108 250.133,104.775 251.5,105.5C 252.167,105.167 252.833,104.833 253.5,104.5C 252.242,105.016 251.242,104.35 250.5,102.5C 251.651,101.269 252.817,101.269 254,102.5C 255.626,99.9342 257.126,100.101 258.5,103C 257.062,103.219 255.729,103.719 254.5,104.5C 255.066,105.291 255.899,105.291 257,104.5C 260.388,106.991 260.221,107.657 256.5,106.5C 255.252,107.04 254.085,107.707 253,108.5C 251.599,106.808 249.766,106.141 247.5,106.5C 247.5,105.5 247.5,104.5 247.5,103.5 Z"/></g>
<g><path style="opacity:1" fill="#d12b2a" d="M 165.5,102.5 C 166.849,101.203 168.182,101.37 169.5,103C 168.072,103.579 166.738,103.412 165.5,102.5 Z"/></g>
<g><path style="opacity:1" fill="#f23131" d="M 198.5,101.5 C 199.397,102.598 200.23,102.598 201,101.5C 203.864,103.68 206.864,105.68 210,107.5C 211.301,109.365 211.635,111.365 211,113.5C 209.286,115.043 207.786,116.71 206.5,118.5C 206.453,120 207.119,121 208.5,121.5C 211.378,117.458 215.045,114.291 219.5,112C 223.167,111.333 226.833,111.333 230.5,112C 232.303,112.637 233.636,113.803 234.5,115.5C 217.984,118.653 208.984,128.986 207.5,146.5C 205.25,146.819 203.25,146.319 201.5,145C 203.527,134.277 208.86,125.61 217.5,119C 211.233,121.913 206.066,126.413 202,132.5C 201.333,125.167 200.667,117.833 200,110.5C 199.253,117.911 198.253,125.244 197,132.5C 194.5,129.333 192,126.167 189.5,123C 187.945,121.711 186.279,121.044 184.5,121C 192.157,127.815 196.491,136.315 197.5,146.5C 195.833,146.5 194.167,146.5 192.5,146.5C 190.454,129.337 181.454,118.837 165.5,115C 166.444,113.523 167.777,112.523 169.5,112C 174.44,110.959 179.106,111.626 183.5,114C 186.027,116.527 188.527,119.027 191,121.5C 192.885,120.687 193.551,119.353 193,117.5C 187.888,115.142 186.721,111.642 189.5,107C 192.898,105.643 195.898,103.81 198.5,101.5 Z"/></g>
<g><path style="opacity:1" fill="#ee3030" d="M 145.5,104.5 C 144.432,103.566 143.099,103.232 141.5,103.5C 141.5,102.5 141.5,101.5 141.5,100.5C 143.635,102.275 145.969,102.942 148.5,102.5C 147.995,103.919 146.995,104.585 145.5,104.5 Z"/></g>
<g><path style="opacity:1" fill="#010000" d="M 316.5,100.5 C 317.309,101.469 318.309,102.302 319.5,103C 318.552,103.483 317.552,103.649 316.5,103.5C 316.5,102.5 316.5,101.5 316.5,100.5 Z"/></g>
<g><path style="opacity:1" fill="#dc2c2c" d="M 140.5,104.5 C 138.983,104.511 137.816,105.177 137,106.5C 136.617,105.944 136.117,105.611 135.5,105.5C 136.879,103.403 138.545,103.07 140.5,104.5 Z"/></g>
<g><path style="opacity:1" fill="#f23131" d="M 160.5,104.5 C 161.497,103.287 162.497,103.454 163.5,105C 162.423,105.47 161.423,105.303 160.5,104.5 Z"/></g>
<g><path style="opacity:1" fill="#f43131" d="M 259.5,104.5 C 261.757,103.197 263.59,103.864 265,106.5C 267.21,111.327 265.543,113.994 260,114.5C 258.513,113.747 258.346,112.914 259.5,112C 258.207,111.51 256.873,111.343 255.5,111.5C 255.626,108.442 257.126,108.109 260,110.5C 260.483,109.552 260.649,108.552 260.5,107.5C 261.552,107.649 262.552,107.483 263.5,107C 262.016,106.338 260.683,105.504 259.5,104.5 Z"/></g>
<g><path style="opacity:1" fill="#000000" d="M 324.5,104.5 C 325.251,103.427 326.251,103.26 327.5,104C 326.648,105.728 325.648,105.895 324.5,104.5 Z"/></g>
<g><path style="opacity:1" fill="#79211c" d="M 289.5,102.5 C 291.802,103.999 291.469,105.332 288.5,106.5C 288.5,105.833 288.5,105.167 288.5,104.5C 286.969,103.075 287.302,102.409 289.5,102.5 Z"/></g>
<g><path style="opacity:1" fill="#942722" d="M 71.5,107.5 C 71.1583,108.338 70.4916,108.672 69.5,108.5C 69.5,107.833 69.5,107.167 69.5,106.5C 72.0233,103.761 72.6899,104.094 71.5,107.5 Z"/></g>
<g><path style="opacity:1" fill="#f13131" d="M 140.5,104.5 C 142.167,104.5 143.833,104.5 145.5,104.5C 146.278,105.156 146.944,105.989 147.5,107C 145.836,108.767 144.669,108.267 144,105.5C 143.29,106.973 142.124,107.64 140.5,107.5C 140.5,106.5 140.5,105.5 140.5,104.5 Z"/></g>
<g><path style="opacity:1" fill="#de2d2d" d="M 151.5,105.5 C 150.762,107.76 149.762,107.927 148.5,106C 149.448,105.517 150.448,105.351 151.5,105.5 Z"/></g>
<g><path style="opacity:1" fill="#1d0904" d="M 69.5,106.5 C 69.5,107.167 69.5,107.833 69.5,108.5C 67.0673,107.452 67.0673,106.786 69.5,106.5 Z"/></g>
<g><path style="opacity:1" fill="#f03131" d="M 135.5,105.5 C 136.348,107.093 137.681,108.26 139.5,109C 139.167,109.333 138.833,109.667 138.5,110C 139.293,111.085 139.96,112.252 140.5,113.5C 138.575,114.794 136.242,114.794 133.5,113.5C 132.3,110.423 132.966,107.756 135.5,105.5 Z"/></g>
<g><path style="opacity:1" fill="#000000" d="M 306.5,106.5 C 307.873,106.343 309.207,106.51 310.5,107C 307.888,107.639 305.554,108.806 303.5,110.5C 302.833,110.333 302.167,110.167 301.5,110C 303.233,108.811 304.9,107.644 306.5,106.5 Z"/></g>
<g><path style="opacity:1" fill="#f43131" d="M 142.5,108.5 C 145.028,109.518 144.861,110.518 142,111.5C 141.5,111.167 141,110.833 140.5,110.5C 141.243,109.818 141.909,109.151 142.5,108.5 Z"/></g>
<g><path style="opacity:1" fill="#020000" d="M 288.5,106.5 C 288.336,109.187 288.503,111.854 289,114.5C 292.498,111.964 295.665,109.131 298.5,106C 299.833,105.333 301.167,105.333 302.5,106C 296.288,108.082 293.621,112.415 294.5,119C 294.833,121.167 295.167,123.333 295.5,125.5C 298.494,124.252 301.494,124.252 304.5,125.5C 304.333,125.833 304.167,126.167 304,126.5C 302.938,125.903 301.772,125.57 300.5,125.5C 297.767,126.147 295.1,126.647 292.5,127C 292.664,122.584 292.997,118.417 293.5,114.5C 292.424,113.344 291.424,113.511 290.5,115C 284.233,116.541 283.233,115.207 287.5,111C 287.167,110.667 286.833,110.333 286.5,110C 287.085,108.698 287.751,107.531 288.5,106.5 Z"/></g>
<g><path style="opacity:1" fill="#801b1c" d="M 148.5,110.5 C 149.497,109.287 150.497,109.454 151.5,111C 150.423,111.47 149.423,111.303 148.5,110.5 Z"/></g>
<g><path style="opacity:1" fill="#000000" d="M 306.5,111.5 C 307.289,111.783 307.956,112.283 308.5,113C 307.184,113.528 306.517,113.028 306.5,111.5 Z"/></g>
<g><path style="opacity:1" fill="#f43232" d="M 270.5,119.5 C 269.153,120.171 267.986,120.171 267,119.5C 266.308,112.608 269.141,110.775 275.5,114C 276.765,115.337 277.265,116.837 277,118.5C 275.406,117.284 273.906,115.951 272.5,114.5C 273.085,116.377 272.418,118.044 270.5,119.5 Z"/></g>
<g><path style="opacity:1" fill="#ed3030" d="M 128.5,119.5 C 126.582,118.044 125.915,116.377 126.5,114.5C 125.389,116.552 123.723,117.886 121.5,118.5C 124.301,111.707 128.301,110.873 133.5,116C 133.87,117.61 133.203,119.11 131.5,120.5C 130.583,119.873 129.583,119.539 128.5,119.5 Z"/></g>
<g><path style="opacity:1" fill="#000000" d="M 128.5,119.5 C 127.842,120.398 127.176,121.398 126.5,122.5C 125.614,121.675 125.281,120.675 125.5,119.5C 124.178,119.33 123.011,119.663 122,120.5C 121.536,119.906 121.369,119.239 121.5,118.5C 123.723,117.886 125.389,116.552 126.5,114.5C 125.915,116.377 126.582,118.044 128.5,119.5 Z"/></g>
<g><path style="opacity:1" fill="#000000" d="M 307.5,115.5 C 308.552,115.351 309.552,115.517 310.5,116C 308.972,117.361 307.305,118.528 305.5,119.5C 305.167,119.167 304.833,118.833 304.5,118.5C 305.34,117.265 306.34,116.265 307.5,115.5 Z"/></g>
<g><path style="opacity:1" fill="#000000" d="M 180.5,118.5 C 181.497,117.287 182.497,117.454 183.5,119C 182.423,119.47 181.423,119.303 180.5,118.5 Z"/></g>
<g><path style="opacity:1" fill="#e8302f" d="M 46.5,118.5 C 47.9221,118.75 48.9221,119.583 49.5,121C 52.6229,121.206 55.6229,121.873 58.5,123C 54.7751,123.011 51.1084,123.677 47.5,125C 46.8333,124.667 46.1667,124.333 45.5,124C 46.8333,123.667 48.1667,123.333 49.5,123C 47.8588,121.871 46.8588,120.371 46.5,118.5 Z"/></g>
<g><path style="opacity:1" fill="#85231f" d="M 61.5,118.5 C 61.5,119.167 61.5,119.833 61.5,120.5C 57.9246,121.01 57.7579,120.01 61,117.5C 61.3988,117.728 61.5654,118.062 61.5,118.5 Z"/></g>
<g><path style="opacity:1" fill="#e8302f" d="M 121.5,118.5 C 121.369,119.239 121.536,119.906 122,120.5C 123.011,119.663 124.178,119.33 125.5,119.5C 125.281,120.675 125.614,121.675 126.5,122.5C 127.176,121.398 127.842,120.398 128.5,119.5C 129.954,122.4 128.954,123.733 125.5,123.5C 125.65,126.926 124.484,127.259 122,124.5C 121.536,125.094 121.369,125.761 121.5,126.5C 120.5,126.5 119.5,126.5 118.5,126.5C 118.33,125.178 118.663,124.011 119.5,123C 116.654,120.27 117.32,118.77 121.5,118.5 Z"/></g>
<g><path style="opacity:1" fill="#f23131" d="M 150.5,118.5 C 162.909,116.965 173.409,120.632 182,129.5C 185.532,134.633 187.366,140.3 187.5,146.5C 179.804,146.831 172.138,146.497 164.5,145.5C 167.996,139.911 172.162,139.245 177,143.5C 179.319,142.591 179.986,140.925 179,138.5C 173.236,133.988 168.403,134.822 164.5,141C 162.091,142.707 159.425,143.54 156.5,143.5C 157.574,134.427 156.241,134.261 152.5,143C 144.187,147.689 141.687,145.523 145,136.5C 146.58,135.574 147.08,134.574 146.5,133.5C 143.348,137.485 139.681,140.985 135.5,144C 121.897,144.751 120.23,140.751 130.5,132C 130.167,131.667 129.833,131.333 129.5,131C 133.033,129.395 136.033,127.061 138.5,124C 142.481,121.838 146.481,120.005 150.5,118.5 Z"/></g>
<g><path style="opacity:1" fill="#f33131" d="M 236.5,118.5 C 254.697,117.365 267.697,125.032 275.5,141.5C 266.16,146.609 259.16,144.276 254.5,134.5C 253.344,135.576 253.511,136.576 255,137.5C 255.667,140.167 255.667,142.833 255,145.5C 252.931,144.736 250.764,144.236 248.5,144C 246.779,141.381 244.946,138.881 243,136.5C 242.5,136.833 242,137.167 241.5,137.5C 242.348,139.409 242.682,141.409 242.5,143.5C 237.59,143.38 233.923,141.214 231.5,137C 225.925,134.134 221.925,135.467 219.5,141C 219.998,142.158 220.831,142.991 222,143.5C 227.026,138.966 231.193,139.633 234.5,145.5C 226.862,146.497 219.196,146.831 211.5,146.5C 212.851,130.821 221.184,121.488 236.5,118.5 Z"/></g>
<g><path style="opacity:1" fill="#000000" d="M 310.5,119.5 C 311.849,118.203 313.182,118.37 314.5,120C 313.833,120.667 313.167,121.333 312.5,122C 314.167,122.333 315.833,122.667 317.5,123C 315.167,123.667 312.833,123.667 310.5,123C 312.49,121.16 312.49,119.993 310.5,119.5 Z"/></g>
<g><path style="opacity:1" fill="#000000" d="M 102.5,119.5 C 103.713,120.497 103.546,121.497 102,122.5C 101.53,121.423 101.697,120.423 102.5,119.5 Z"/></g>
<g><path style="opacity:1" fill="#f43232" d="M 270.5,119.5 C 271.443,120.883 272.443,122.216 273.5,123.5C 270.046,123.733 269.046,122.4 270.5,119.5 Z"/></g>
<g><path style="opacity:1" fill="#e32f2e" d="M 281.5,122.5 C 281.5,122.833 281.5,123.167 281.5,123.5C 280.402,124.397 280.402,125.23 281.5,126C 279.953,126.333 278.62,125.833 277.5,124.5C 276.702,124.957 276.369,125.624 276.5,126.5C 274.81,126.144 273.81,125.144 273.5,123.5C 274.473,123.013 275.473,122.513 276.5,122C 273.772,121.361 273.272,120.194 275,118.5C 277.069,119.264 279.236,119.764 281.5,120C 280.402,120.77 280.402,121.603 281.5,122.5 Z"/></g>
<g><path style="opacity:1" fill="#000000" d="M 152.5,121.5 C 162.215,120.533 170.548,123.366 177.5,130C 171.501,129.665 166.334,131.499 162,135.5C 162.708,132.124 164.874,129.958 168.5,129C 162.417,127.06 156.917,128.227 152,132.5C 151.493,131.004 151.993,129.837 153.5,129C 155.5,128 157.5,127 159.5,126C 154.561,125.531 149.894,126.531 145.5,129C 142.688,131.901 139.688,134.568 136.5,137C 134.635,138.301 132.635,138.635 130.5,138C 135.783,129.523 143.116,124.023 152.5,121.5 Z"/></g>
<g><path style="opacity:1" fill="#000000" d="M 236.5,133.5 C 232.028,131.566 227.361,130.233 222.5,129.5C 229.74,122.48 238.407,119.98 248.5,122C 256.924,125.086 263.591,130.42 268.5,138C 267.167,138.667 265.833,138.667 264.5,138C 260.833,135 257.167,132 253.5,129C 249.404,126.741 245.071,125.741 240.5,126C 244.153,126.984 246.32,129.151 247,132.5C 242.144,127.908 236.644,126.742 230.5,129C 233.229,129.566 235.229,131.066 236.5,133.5 Z"/></g>
<g><path style="opacity:1" fill="#010000" d="M 281.5,123.5 C 283.035,125.101 284.202,126.768 285,128.5C 283.249,127.191 281.749,127.525 280.5,129.5C 278.84,128.828 277.507,127.828 276.5,126.5C 276.369,125.624 276.702,124.957 277.5,124.5C 278.62,125.833 279.953,126.333 281.5,126C 280.402,125.23 280.402,124.397 281.5,123.5 Z"/></g>
<g><path style="opacity:1" fill="#ef3131" d="M 281.5,123.5 C 281.5,123.167 281.5,122.833 281.5,122.5C 286.946,124.545 288.28,128.045 285.5,133C 283.098,133.814 280.765,133.647 278.5,132.5C 279.025,131.808 279.692,131.308 280.5,131C 277.553,130.888 276.22,129.388 276.5,126.5C 277.507,127.828 278.84,128.828 280.5,129.5C 281.749,127.525 283.249,127.191 285,128.5C 284.202,126.768 283.035,125.101 281.5,123.5 Z"/></g>
<g><path style="opacity:1" fill="#e62f2f" d="M 121.5,128.5 C 122.602,130.092 121.935,130.925 119.5,131C 120.622,132.613 120.122,133.78 118,134.5C 116.127,135.089 114.46,134.422 113,132.5C 111.582,128.163 112.748,124.829 116.5,122.5C 117.443,124.47 116.776,125.97 114.5,127C 116.076,127.44 117.41,128.273 118.5,129.5C 119.417,128.873 120.417,128.539 121.5,128.5 Z"/></g>
<g><path style="opacity:1" fill="#5c1916" d="M 98.5,128.5 C 98.2328,125.225 99.2328,124.392 101.5,126C 100.833,126.333 100.167,126.667 99.5,127C 100.554,128.388 100.72,129.888 100,131.5C 99.7679,130.263 99.2679,129.263 98.5,128.5 Z"/></g>
<g><path style="opacity:1" fill="#f43231" d="M 121.5,126.5 C 123.933,127.548 123.933,128.214 121.5,128.5C 121.5,127.833 121.5,127.167 121.5,126.5 Z"/></g>
<g><path style="opacity:1" fill="#000000" d="M 98.5,128.5 C 98.0708,132.257 98.7375,135.757 100.5,139C 100,139.5 99.5,140 99,140.5C 97.2864,136.437 97.1198,132.437 98.5,128.5 Z"/></g>
<g><path style="opacity:1" fill="#000000" d="M 306.5,130.5 C 309.105,133.882 309.105,137.382 306.5,141C 307.5,141.333 308.5,141.667 309.5,142C 307.471,142.681 305.471,143.014 303.5,143C 305.923,139.247 306.923,135.08 306.5,130.5 Z"/></g>
<g><path style="opacity:1" fill="#070101" d="M 236.5,133.5 C 238.085,134.002 238.585,135.002 238,136.5C 236.961,135.756 236.461,134.756 236.5,133.5 Z"/></g>
<g><path style="opacity:1" fill="#e52f2e" d="M 104.5,142.5 C 103.549,138.066 105.549,135.399 110.5,134.5C 113.987,135.469 115.32,137.802 114.5,141.5C 113.448,141.351 112.448,141.517 111.5,142C 112.833,144.333 112.167,145.333 109.5,145C 109.616,143.732 109.949,142.398 110.5,141C 108.238,140.299 107.238,139.132 107.5,137.5C 106.68,139.319 105.68,140.986 104.5,142.5 Z"/></g>
<g><path style="opacity:1" fill="#000000" d="M 294.5,142.5 C 293.504,142.586 292.671,142.252 292,141.5C 292.164,145.15 290.997,145.983 288.5,144C 289.641,143.259 289.641,142.425 288.5,141.5C 289.325,140.614 290.325,140.281 291.5,140.5C 291.351,139.448 291.517,138.448 292,137.5C 292.785,139.249 293.618,140.916 294.5,142.5 Z"/></g>
<g><path style="opacity:1" fill="#000000" d="M 295.5,138.5 C 297.25,139.659 298.25,141.326 298.5,143.5C 297.178,143.33 296.011,143.663 295,144.5C 294.536,143.906 294.369,143.239 294.5,142.5C 295.434,141.432 295.768,140.099 295.5,138.5 Z"/></g>
<g><path style="opacity:1" fill="#000000" d="M 100.5,143.5 C 100.574,145.411 101.574,146.578 103.5,147C 102.874,147.75 102.374,148.584 102,149.5C 101.692,148.692 101.192,148.025 100.5,147.5C 99.4679,149.04 98.1346,149.54 96.5,149C 97.9771,147.188 99.3104,145.355 100.5,143.5 Z"/></g>
<g><path style="opacity:1" fill="#130604" d="M 298.5,143.5 C 300.399,145.253 301.065,147.253 300.5,149.5C 299.5,148.167 298.5,148.167 297.5,149.5C 296.713,148.758 296.047,147.925 295.5,147C 297.426,146.578 298.426,145.411 298.5,143.5 Z"/></g>
<g><path style="opacity:1" fill="#000000" d="M 18.5,254.5 C 17.5655,253.432 17.2322,252.099 17.5,250.5C 17.921,215.973 17.921,181.307 17.5,146.5C 39.7424,145.989 62.0758,145.989 84.5,146.5C 84.5,147.5 84.5,148.5 84.5,149.5C 63.6437,149.247 42.6437,149.247 21.5,149.5C 22.1484,170.566 21.4817,191.399 19.5,212C 21.1422,224.936 22.1422,238.103 22.5,251.5C 23.086,251.291 23.586,250.957 24,250.5C 44.0936,251.327 64.2603,251.827 84.5,252C 84.0426,252.414 83.7093,252.914 83.5,253.5C 61.8436,254.5 40.1769,254.833 18.5,254.5 Z"/></g>
<g><path style="opacity:1" fill="#c72828" d="M 382.5,160.5 C 381.833,161.167 381.167,161.833 380.5,162.5C 380.172,157.125 380.505,151.792 381.5,146.5C 382.493,151.12 382.827,155.786 382.5,160.5 Z"/></g>
<g><path style="opacity:1" fill="#000000" d="M 374.5,157.5 C 373.835,171.447 373.502,185.113 373.5,198.5C 373.713,214.945 374.047,230.945 374.5,246.5C 373.833,246.5 373.5,246.833 373.5,247.5C 257.5,247.5 141.5,247.5 25.5,247.5C 25.5,216.167 25.5,184.833 25.5,153.5C 141.833,153.5 258.167,153.5 374.5,153.5C 374.5,154.833 374.5,156.167 374.5,157.5 Z"/></g>
<g><path style="opacity:1" fill="#4d0f10" d="M 382.5,160.5 C 382.5,169.167 382.5,177.833 382.5,186.5C 381.833,186.5 381.167,186.5 380.5,186.5C 380.5,178.5 380.5,170.5 380.5,162.5C 381.167,161.833 381.833,161.167 382.5,160.5 Z"/></g>
<g><path style="opacity:1" fill="#e3302f" d="M 167.5,183.5 C 181.828,183.994 187.995,191.327 186,205.5C 180.866,215.386 173.032,218.219 162.5,214C 154.156,207.844 152.323,200.01 157,190.5C 159.709,186.791 163.209,184.457 167.5,183.5 Z"/></g>
<g><path style="opacity:1" fill="#f13131" d="M 210.5,183.5 C 215.248,183.275 219.915,183.775 224.5,185C 227.991,186.821 229.157,189.654 228,193.5C 227.64,195.421 226.806,197.088 225.5,198.5C 229.005,202.208 230.172,206.541 229,211.5C 227.786,213.049 226.286,214.215 224.5,215C 219.833,215.667 215.167,215.667 210.5,215C 211,214.5 211.5,214 212,213.5C 212.667,204.5 212.667,195.5 212,186.5C 210.961,185.756 210.461,184.756 210.5,183.5 Z"/></g>
<g><path style="opacity:1" fill="#f23131" d="M 228.5,184.5 C 231.355,183.197 234.355,183.197 237.5,184.5C 236.221,189.321 235.554,194.321 235.5,199.5C 235.667,204.167 235.833,208.833 236,213.5C 236.5,214 237,214.5 237.5,215C 234.5,215.667 231.5,215.667 228.5,215C 229,214.5 229.5,214 230,213.5C 230.667,204.167 230.667,194.833 230,185.5C 229.617,184.944 229.117,184.611 228.5,184.5 Z"/></g>
<g><path style="opacity:1" fill="#f03131" d="M 262.5,184.5 C 265.355,183.197 268.355,183.197 271.5,184.5C 271.192,185.308 270.692,185.975 270,186.5C 269.832,196.184 269.332,205.851 268.5,215.5C 261.542,208.041 254.375,200.708 247,193.5C 246.333,200.167 246.333,206.833 247,213.5C 247.75,214.126 248.584,214.626 249.5,215C 246.5,215.667 243.5,215.667 240.5,215C 241,214.5 241.5,214 242,213.5C 242.168,203.816 242.668,194.149 243.5,184.5C 250.458,191.959 257.625,199.292 265,206.5C 265.667,199.833 265.667,193.167 265,186.5C 264.292,185.619 263.458,184.953 262.5,184.5 Z"/></g>
<g><path style="opacity:1" fill="#ee3030" d="M 284.5,183.5 C 289.141,184.127 293.807,184.46 298.5,184.5C 298.813,187.247 298.48,189.914 297.5,192.5C 296.398,190.111 294.731,188.277 292.5,187C 276.853,185.996 272.019,192.83 278,207.5C 282.303,212.102 287.469,213.768 293.5,212.5C 295.288,207.811 294.621,203.644 291.5,200C 294.833,199.333 298.167,199.333 301.5,200C 300.975,200.692 300.308,201.192 299.5,201.5C 298.508,205.783 298.174,210.116 298.5,214.5C 290.471,216.5 282.805,215.667 275.5,212C 268.385,202.703 269.052,194.036 277.5,186C 280.004,185.302 282.337,184.469 284.5,183.5 Z"/></g>
<g><path style="opacity:1" fill="#f43131" d="M 326.5,183.5 C 339.965,183.93 342.965,189.763 335.5,201C 338.723,207.057 343.389,211.557 349.5,214.5C 346.423,215.799 343.423,215.632 340.5,214C 338.167,211 335.833,208 333.5,205C 331.35,203.589 329.016,202.755 326.5,202.5C 326.335,206.182 326.501,209.848 327,213.5C 327.5,214 328,214.5 328.5,215C 325.833,215.667 323.167,215.667 320.5,215C 321,214.5 321.5,214 322,213.5C 322.667,204.5 322.667,195.5 322,186.5C 321.5,186 321,185.5 320.5,185C 322.708,184.809 324.708,184.309 326.5,183.5 Z"/></g>
<g><path style="opacity:1" fill="#f43131" d="M 357.5,183.5 C 360.206,183.575 362.873,183.908 365.5,184.5C 365.662,186.527 365.495,188.527 365,190.5C 363.309,186.787 360.475,185.621 356.5,187C 355.643,187.689 354.977,188.522 354.5,189.5C 357.322,194.018 360.822,198.018 365,201.5C 368.245,209.769 365.412,214.435 356.5,215.5C 351.422,215.805 349.589,213.472 351,208.5C 355.185,215.013 359.351,215.013 363.5,208.5C 362.667,206.833 361.833,205.167 361,203.5C 356.041,200.543 352.541,196.376 350.5,191C 351.699,187.305 354.032,184.805 357.5,183.5 Z"/></g>
<g><path style="opacity:1" fill="#f03131" d="M 44.5,183.5 C 49.1408,184.127 53.8075,184.46 58.5,184.5C 58.8134,187.247 58.48,189.914 57.5,192.5C 55.7422,187.952 52.4089,185.952 47.5,186.5C 39.8333,186.833 35.8333,190.833 35.5,198.5C 36.381,208.878 42.0477,213.711 52.5,213C 53.7201,211.475 54.3868,209.641 54.5,207.5C 54.949,204.363 53.949,201.863 51.5,200C 54.8333,199.333 58.1667,199.333 61.5,200C 60.9747,200.692 60.3081,201.192 59.5,201.5C 58.3391,205.795 58.1725,210.129 59,214.5C 63.43,204.636 67.5967,194.636 71.5,184.5C 75.9499,193.674 80.1166,203.007 84,212.5C 84.9025,213.701 86.0692,214.535 87.5,215C 84.1667,215.667 80.8333,215.667 77.5,215C 78.0585,214.275 78.3918,213.442 78.5,212.5C 77.6699,210.172 76.8366,207.838 76,205.5C 73,204.167 70,204.167 67,205.5C 66.1667,208 65.3333,210.5 64.5,213C 64.9054,213.945 65.572,214.612 66.5,215C 60.4353,214.773 54.4353,214.939 48.5,215.5C 36.9221,216.089 30.9221,210.589 30.5,199C 31.584,190.423 36.2507,185.256 44.5,183.5 Z"/></g>
<g><path style="opacity:1" fill="#f03131" d="M 94.5,184.5 C 99.0591,191.942 103.392,199.609 107.5,207.5C 111.667,199.833 115.833,192.167 120,184.5C 122.093,193.057 123.76,201.723 125,210.5C 125.273,212.329 126.107,213.829 127.5,215C 124.5,215.667 121.5,215.667 118.5,215C 119.658,213.991 120.325,212.658 120.5,211C 120.023,206.587 118.857,202.42 117,198.5C 113.919,204.331 110.585,209.998 107,215.5C 104.34,209.51 101.174,203.844 97.5,198.5C 96.4624,202.095 95.7958,205.762 95.5,209.5C 95.3262,211.693 95.9929,213.527 97.5,215C 94.5,215.667 91.5,215.667 88.5,215C 89.8932,213.829 90.7265,212.329 91,210.5C 92.0043,201.798 93.171,193.131 94.5,184.5 Z"/></g>
<g><path style="opacity:1" fill="#f03131" d="M 145.5,183.5 C 146.559,185.726 146.392,188.059 145,190.5C 143.323,186.949 140.49,185.616 136.5,186.5C 136.5,190.167 136.5,193.833 136.5,197.5C 139.448,197.777 142.281,197.444 145,196.5C 145.667,198.833 145.667,201.167 145,203.5C 142.804,200.875 139.97,199.875 136.5,200.5C 136.335,204.182 136.501,207.848 137,211.5C 140.927,214.448 144.261,213.782 147,209.5C 147.18,211.488 147.014,213.488 146.5,215.5C 140.824,215.666 135.157,215.499 129.5,215C 130.802,210.418 131.469,205.585 131.5,200.5C 131.333,195.833 131.167,191.167 131,186.5C 130.25,185.874 129.416,185.374 128.5,185C 134.348,184.827 140.015,184.327 145.5,183.5 Z"/></g>
<g><path style="opacity:1" fill="#f03131" d="M 201.5,183.5 C 202.559,185.726 202.392,188.059 201,190.5C 199.323,186.949 196.49,185.616 192.5,186.5C 192.5,190.167 192.5,193.833 192.5,197.5C 195.448,197.777 198.281,197.444 201,196.5C 201.667,198.833 201.667,201.167 201,203.5C 198.804,200.875 195.97,199.875 192.5,200.5C 192.334,204.846 192.501,209.179 193,213.5C 193.5,214 194,214.5 194.5,215C 191.5,215.667 188.5,215.667 185.5,215C 186.802,210.418 187.469,205.585 187.5,200.5C 187.333,195.833 187.167,191.167 187,186.5C 186.25,185.874 185.416,185.374 184.5,185C 190.348,184.827 196.015,184.327 201.5,183.5 Z"/></g>
<g><path style="opacity:1" fill="#f13131" d="M 317.5,183.5 C 318.043,183.56 318.376,183.893 318.5,184.5C 317.811,186.444 317.311,188.444 317,190.5C 314.805,187.037 311.639,185.704 307.5,186.5C 307.5,190.167 307.5,193.833 307.5,197.5C 310.777,197.784 313.943,197.451 317,196.5C 317.706,198.971 317.373,201.305 316,203.5C 315.626,202.584 315.126,201.75 314.5,201C 312.19,200.503 309.857,200.337 307.5,200.5C 307.335,204.182 307.501,207.848 308,211.5C 312.118,214.592 315.451,213.925 318,209.5C 318.495,211.473 318.662,213.473 318.5,215.5C 312.824,215.666 307.157,215.499 301.5,215C 302,214.5 302.5,214 303,213.5C 303.667,204.5 303.667,195.5 303,186.5C 302.25,185.874 301.416,185.374 300.5,185C 306.348,184.827 312.015,184.327 317.5,183.5 Z"/></g>
<g><path style="opacity:1" fill="#000000" d="M 217.5,186.5 C 224.488,186.654 226.488,189.82 223.5,196C 221.323,197.202 218.989,197.702 216.5,197.5C 216.244,193.731 216.577,190.064 217.5,186.5 Z"/></g>
<g><path style="opacity:1" fill="#030000" d="M 326.5,186.5 C 332.134,185.468 335.134,187.802 335.5,193.5C 335.051,198.993 332.051,200.993 326.5,199.5C 326.5,195.167 326.5,190.833 326.5,186.5 Z"/></g>
<g><path style="opacity:1" fill="#000000" d="M 165.5,187.5 C 166.825,191.276 167.491,195.443 167.5,200C 167.167,204.167 166.833,208.333 166.5,212.5C 159.526,207.414 157.693,200.748 161,192.5C 162.025,190.313 163.525,188.646 165.5,187.5 Z"/></g>
<g><path style="opacity:1" fill="#000000" d="M 173.5,187.5 C 175.679,187.84 177.512,188.84 179,190.5C 184.226,199.707 182.559,207.374 174,213.5C 173.5,204.84 173.334,196.173 173.5,187.5 Z"/></g>
<g><path style="opacity:1" fill="#d42b2b" d="M 377.5,154.5 C 378.59,170.045 378.59,185.711 377.5,201.5C 376.686,199.369 376.186,197.036 376,194.5C 375.667,196.167 375.333,197.833 375,199.5C 374.617,198.944 374.117,198.611 373.5,198.5C 373.502,185.113 373.835,171.447 374.5,157.5C 375.272,156.306 376.272,155.306 377.5,154.5 Z"/></g>
<g><path style="opacity:1" fill="#000000" d="M 70.5,193.5 C 72.5669,195.318 73.9003,197.651 74.5,200.5C 72.5,201.833 70.5,201.833 68.5,200.5C 69.5771,198.271 70.2437,195.937 70.5,193.5 Z"/></g>
<g><path style="opacity:1" fill="#000000" d="M 216.5,200.5 C 224,199.166 226.833,202.166 225,209.5C 223.392,213.354 220.726,214.354 217,212.5C 216.501,208.514 216.334,204.514 216.5,200.5 Z"/></g>
<g><path style="opacity:1" fill="#721817" d="M 380.5,186.5 C 381.167,186.5 381.833,186.5 382.5,186.5C 383.713,197.255 383.713,207.922 382.5,218.5C 382.128,210.928 381.461,203.261 380.5,195.5C 380.5,192.5 380.5,189.5 380.5,186.5 Z"/></g>
<g><path style="opacity:1" fill="#b12424" d="M 380.5,195.5 C 381.461,203.261 382.128,210.928 382.5,218.5C 383.342,222.068 383.342,225.401 382.5,228.5C 382.158,227.662 381.492,227.328 380.5,227.5C 380.5,216.833 380.5,206.167 380.5,195.5 Z"/></g>
<g><path style="opacity:1" fill="#ec3030" d="M 377.5,201.5 C 377.5,216.833 377.5,232.167 377.5,247.5C 376.732,246.737 376.232,245.737 376,244.5C 375.841,246.343 375.341,247.009 374.5,246.5C 374.047,230.945 373.713,214.945 373.5,198.5C 374.117,198.611 374.617,198.944 375,199.5C 375.333,197.833 375.667,196.167 376,194.5C 376.186,197.036 376.686,199.369 377.5,201.5 Z"/></g>
<g><path style="opacity:1" fill="#e82f2f" d="M 380.5,227.5 C 381.492,227.328 382.158,227.662 382.5,228.5C 382.635,233.289 382.635,238.289 382.5,243.5C 381.833,243.5 381.167,243.5 380.5,243.5C 380.5,238.167 380.5,232.833 380.5,227.5 Z"/></g>
<g><path style="opacity:1" fill="#741817" d="M 380.5,243.5 C 381.167,243.5 381.833,243.5 382.5,243.5C 382.47,254.068 381.804,254.068 380.5,243.5 Z"/></g>
<g><path style="opacity:1" fill="#701617" d="M 377.5,247.5 C 377.657,248.873 377.49,250.207 377,251.5C 373.651,251.254 370.151,251.254 366.5,251.5C 369.164,250.603 371.498,249.27 373.5,247.5C 373.5,246.833 373.833,246.5 374.5,246.5C 375.341,247.009 375.841,246.343 376,244.5C 376.232,245.737 376.732,246.737 377.5,247.5 Z"/></g>
<g><path style="opacity:1" fill="#000000" d="M 84.5,258.5 C 85.209,257.596 86.209,257.263 87.5,257.5C 87.528,255.418 86.8613,253.584 85.5,252C 87.2588,251.202 88.9255,251.369 90.5,252.5C 90.0233,253.478 89.3567,254.311 88.5,255C 88.2986,257.699 88.6319,260.532 89.5,263.5C 88.6518,265.283 87.3185,265.783 85.5,265C 87.25,263.246 87.9167,261.079 87.5,258.5C 86.5,258.5 85.5,258.5 84.5,258.5 Z"/></g>
<g><path style="opacity:1" fill="#010000" d="M 114.5,251.5 C 171.185,251.54 227.852,251.706 284.5,252C 267.416,279.729 243.749,296.229 213.5,301.5C 174.863,305.256 143.696,291.923 120,261.5C 117.888,258.273 116.055,254.94 114.5,251.5 Z"/></g>
<g><path style="opacity:1" fill="#010000" d="M 92.5,252.5 C 93.7079,253.234 95.0413,253.567 96.5,253.5C 96.2924,255.92 96.6258,258.253 97.5,260.5C 95.6984,262.922 93.365,263.755 90.5,263C 94.7287,261.713 96.2287,258.88 95,254.5C 93.6124,255.554 92.1124,255.72 90.5,255C 91.756,254.583 92.4226,253.75 92.5,252.5 Z"/></g>
<g><path style="opacity:1" fill="#741717" d="M 17.5,250.5 C 17.2322,252.099 17.5655,253.432 18.5,254.5C 18.5,254.833 18.5,255.167 18.5,255.5C 16.4017,256.914 15.4017,256.248 15.5,253.5C 16.1667,252.5 16.8333,251.5 17.5,250.5 Z"/></g>
<g><path style="opacity:1" fill="#000000" d="M 296.5,253.5 C 297.463,254.363 297.463,255.03 296.5,255.5C 295.227,254.743 295.227,254.077 296.5,253.5 Z"/></g>
<g><path style="opacity:1" fill="#f33131" d="M 106.5,254.5 C 108.763,255.59 108.93,256.923 107,258.5C 105.37,257.182 105.203,255.849 106.5,254.5 Z"/></g>
<g><path style="opacity:1" fill="#f33131" d="M 144.5,254.5 C 146.865,255.008 149.199,255.675 151.5,256.5C 152.879,259.293 154.712,261.626 157,263.5C 157.5,263.333 158,263.167 158.5,263C 156.984,261.103 156.317,258.936 156.5,256.5C 161.739,256.287 165.739,258.454 168.5,263C 175.34,265.92 179.007,263.753 179.5,256.5C 176.138,256.07 173.305,257.07 171,259.5C 168.304,258.81 166.137,257.31 164.5,255C 172.159,254.5 179.826,254.334 187.5,254.5C 186.781,264.435 182.114,271.935 173.5,277C 156.2,284.593 141.367,281.093 129,266.5C 127.533,263.734 125.7,261.234 123.5,259C 126.869,255.739 130.869,254.739 135.5,256C 139.671,259.172 143.504,262.672 147,266.5C 147.5,266.333 148,266.167 148.5,266C 143.468,263.163 142.135,259.329 144.5,254.5 Z"/></g>
<g><path style="opacity:1" fill="#f33131" d="M 192.5,254.5 C 194.167,254.5 195.833,254.5 197.5,254.5C 195.766,265.423 190.432,274.257 181.5,281C 183.279,280.956 184.945,280.289 186.5,279C 190.377,275.292 194.043,271.458 197.5,267.5C 198.381,274.827 199.214,282.16 200,289.5C 200.777,282.177 201.444,274.843 202,267.5C 205.736,273.258 210.57,277.424 216.5,280C 208.114,273.632 203.114,265.299 201.5,255C 202.167,254.833 202.833,254.667 203.5,254.5C 204.863,255.198 206.029,255.198 207,254.5C 209.557,270.719 218.723,280.886 234.5,285C 224.799,290.713 216.799,288.879 210.5,279.5C 209.311,278.571 207.978,278.238 206.5,278.5C 206.483,281.991 207.983,284.658 211,286.5C 211.667,287.833 211.667,289.167 211,290.5C 207.254,293.29 203.421,295.957 199.5,298.5C 195.682,295.74 191.849,293.073 188,290.5C 187.333,289.167 187.333,287.833 188,286.5C 188.333,286.833 188.667,287.167 189,287.5C 190.214,285.951 191.714,284.785 193.5,284C 192.833,283.667 192.167,283.333 191.5,283C 194.31,279.953 193.643,278.62 189.5,279C 182.912,288.397 174.578,290.397 164.5,285C 180.97,281.364 190.303,271.198 192.5,254.5 Z"/></g>
<g><path style="opacity:1" fill="#f13131" d="M 254.5,264.5 C 256.973,261.196 259.973,258.362 263.5,256C 267.95,254.886 271.95,255.72 275.5,258.5C 264.197,279.212 247.53,285.378 225.5,277C 217.027,272.047 212.36,264.713 211.5,255C 219.167,254.333 226.833,254.333 234.5,255C 231.525,259.134 228.192,259.801 224.5,257C 219.939,256.618 218.772,258.452 221,262.5C 227.356,266.026 232.19,264.526 235.5,258C 237.74,257.023 240.073,256.523 242.5,256.5C 242.682,258.591 242.348,260.591 241.5,262.5C 242,262.833 242.5,263.167 243,263.5C 244.946,261.119 246.779,258.619 248.5,256C 250.529,255.319 252.529,254.986 254.5,255C 255.7,258.131 255.7,261.298 254.5,264.5 Z"/></g>
<g><path style="opacity:1" fill="#f43231" d="M 109.5,256.5 C 110.743,255.263 111.743,255.596 112.5,257.5C 112.167,257.833 111.833,258.167 111.5,258.5C 110.818,257.757 110.151,257.091 109.5,256.5 Z"/></g>
<g><path style="opacity:1" fill="#000000" d="M 302.5,256.5 C 303.289,256.783 303.956,257.283 304.5,258C 303.184,258.528 302.517,258.028 302.5,256.5 Z"/></g>
<g><path style="opacity:1" fill="#f43131" d="M 103.5,258.5 C 105.532,259.561 106.866,261.228 107.5,263.5C 108.281,262.271 108.781,260.938 109,259.5C 110.628,260.097 112.295,259.763 114,258.5C 114.999,265.53 111.999,267.197 105,263.5C 104.392,261.846 103.892,260.179 103.5,258.5 Z"/></g>
<g><path style="opacity:1" fill="#f43131" d="M 284.5,258.5 C 286.583,259.029 288.417,260.029 290,261.5C 290.333,261.167 290.667,260.833 291,260.5C 291.667,264.5 292.333,264.5 293,260.5C 295.113,262.271 294.947,263.771 292.5,265C 290.167,265.667 287.833,265.667 285.5,265C 285.032,263.178 284.699,261.011 284.5,258.5 Z"/></g>
<g><path style="opacity:1" fill="#000000" d="M 130.5,260.5 C 133.016,260.755 135.35,261.589 137.5,263C 142.859,269.595 149.692,273.762 158,275.5C 158.667,274.833 158.667,274.167 158,273.5C 154.452,271.637 152.118,268.97 151,265.5C 155.964,270.789 161.797,272.955 168.5,272C 165.167,270 162.5,267.333 160.5,264C 160.833,263.833 161.167,263.667 161.5,263.5C 165.268,267.935 169.934,269.602 175.5,268.5C 176.308,268.808 176.975,269.308 177.5,270C 161.948,282.077 147.448,280.911 134,266.5C 132.579,264.595 131.412,262.595 130.5,260.5 Z"/></g>
<g><path style="opacity:1" fill="#050100" d="M 266.5,260.5 C 267.289,260.783 267.956,261.283 268.5,262C 266.578,263.46 265.911,265.127 266.5,267C 265.333,268.167 264.167,269.333 263,270.5C 262.667,270.167 262.333,269.833 262,269.5C 261.333,270.833 260.667,272.167 260,273.5C 259.667,273.167 259.333,272.833 259,272.5C 247.11,280.522 235.277,280.355 223.5,272C 222.663,270.989 222.33,269.822 222.5,268.5C 228.539,269.766 233.705,268.099 238,263.5C 237.052,266.801 234.885,269.301 231.5,271C 237.816,272.878 243.316,271.378 248,266.5C 248.667,267.167 248.667,267.833 248,268.5C 245.766,270.7 243.266,272.533 240.5,274C 245.451,273.908 250.117,272.575 254.5,270C 258.024,266.091 262.024,262.924 266.5,260.5 Z"/></g>
<g><path style="opacity:1" fill="#000000" d="M 94.5,264.5 C 96.681,269.493 95.0143,271.327 89.5,270C 93.4592,270.209 95.1258,268.375 94.5,264.5 Z"/></g>
<g><path style="opacity:1" fill="#000000" d="M 254.5,264.5 C 253.998,266.085 252.998,266.585 251.5,266C 252.244,264.961 253.244,264.461 254.5,264.5 Z"/></g>
<g><path style="opacity:1" fill="#030000" d="M 76.5,266.5 C 78.5753,266.302 80.5753,266.135 82.5,266C 80.5167,267.707 78.5167,267.874 76.5,266.5 Z"/></g>
<g><path style="opacity:1" fill="#000000" d="M 100.5,266.5 C 101.675,266.281 102.675,266.614 103.5,267.5C 101.235,268.647 98.9018,268.814 96.5,268C 98.0581,267.79 99.3915,267.29 100.5,266.5 Z"/></g>
<g><path style="opacity:1" fill="#f33131" d="M 119.5,270.5 C 117.571,272.258 115.571,272.924 113.5,272.5C 115.833,273.832 117.166,275.832 117.5,278.5C 116.078,277.075 114.411,276.075 112.5,275.5C 111.072,268.085 113.738,265.585 120.5,268C 119.748,268.671 119.414,269.504 119.5,270.5 Z"/></g>
<g><path style="opacity:1" fill="#0b0201" d="M 85.5,274.5 C 83.4247,274.698 81.4247,274.865 79.5,275C 79.6932,273.355 79.8598,271.521 80,269.5C 80.3095,270.766 80.8095,271.933 81.5,273C 83.0581,273.21 84.3915,273.71 85.5,274.5 Z"/></g>
<g><path style="opacity:1" fill="#000000" d="M 86.5,270.5 C 88.9752,270.747 88.9752,271.413 86.5,272.5C 85.537,272.03 85.537,271.363 86.5,270.5 Z"/></g>
<g><path style="opacity:1" fill="#f43231" d="M 119.5,270.5 C 120.5,270.5 121.5,270.5 122.5,270.5C 122.283,274.06 121.283,274.06 119.5,270.5 Z"/></g>
<g><path style="opacity:1" fill="#140704" d="M 283.5,273.5 C 283.461,274.583 283.127,275.583 282.5,276.5C 283.274,277.711 284.107,277.711 285,276.5C 285.913,278.881 285.246,280.881 283,282.5C 282.617,281.944 282.117,281.611 281.5,281.5C 281.64,279.876 280.973,278.71 279.5,278C 280.973,277.29 281.64,276.124 281.5,274.5C 276.863,274.392 276.53,273.392 280.5,271.5C 281.265,272.612 282.265,273.279 283.5,273.5 Z"/></g>
<g><path style="opacity:1" fill="#000000" d="M 93.5,272.5 C 94.7879,274.035 94.7879,275.701 93.5,277.5C 93.1928,276.113 93.1928,274.446 93.5,272.5 Z"/></g>
<g><path style="opacity:1" fill="#000000" d="M 283.5,273.5 C 284.077,272.227 284.743,272.227 285.5,273.5C 285.03,274.463 284.363,274.463 283.5,273.5 Z"/></g>
<g><path style="opacity:1" fill="#000000" d="M 107.5,277.5 C 107.03,276.307 106.03,275.64 104.5,275.5C 103.5,275.667 102.5,275.833 101.5,276C 100.98,279.404 99.813,282.571 98,285.5C 96.9326,284.809 95.7659,284.309 94.5,284C 98.7363,283.257 100.403,280.757 99.5,276.5C 98.1266,276.657 96.7932,276.49 95.5,276C 97.7271,275.879 99.5604,275.046 101,273.5C 102.667,274.833 104.333,274.833 106,273.5C 107.067,274.191 108.234,274.691 109.5,275C 108.934,275.995 108.267,276.828 107.5,277.5 Z"/></g>
<g><path style="opacity:1" fill="#000000" d="M 85.5,274.5 C 86.3446,275.671 87.0113,277.005 87.5,278.5C 85.8235,277.817 85.1568,276.483 85.5,274.5 Z"/></g>
<g><path style="opacity:1" fill="#eb3030" d="M 118.5,274.5 C 119.5,274.5 120.5,274.5 121.5,274.5C 121.5,275.5 121.5,276.5 121.5,277.5C 120.5,277.5 119.5,277.5 118.5,277.5C 118.5,276.5 118.5,275.5 118.5,274.5 Z"/></g>
<g><path style="opacity:1" fill="#f43231" d="M 122.5,274.5 C 123.5,274.5 124.5,274.5 125.5,274.5C 125.5,275.5 125.5,276.5 125.5,277.5C 124.5,277.5 123.5,277.5 122.5,277.5C 122.5,276.5 122.5,275.5 122.5,274.5 Z"/></g>
<g><path style="opacity:1" fill="#200e09" d="M 71.5,279.5 C 70.0651,278.015 70.2317,276.682 72,275.5C 74.0185,277.124 73.8519,278.457 71.5,279.5 Z"/></g>
<g><path style="opacity:1" fill="#4d1814" d="M 292.5,273.5 C 293.995,273.415 294.995,274.081 295.5,275.5C 293.604,276.639 292.604,275.973 292.5,273.5 Z"/></g>
<g><path style="opacity:1" fill="#000000" d="M 107.5,277.5 C 107.5,278.5 107.5,279.5 107.5,280.5C 110.332,279.371 112.999,279.871 115.5,282C 114.956,282.717 114.289,283.217 113.5,283.5C 111.721,281.656 109.388,280.99 106.5,281.5C 106.232,279.901 106.566,278.568 107.5,277.5 Z"/></g>
<g><path style="opacity:1" fill="#f33131" d="M 126.5,278.5 C 128.267,277.35 129.433,278.017 130,280.5C 130.333,280.167 130.667,279.833 131,279.5C 132.676,281.315 133.509,283.149 133.5,285C 128.891,288.73 124.891,288.23 121.5,283.5C 123.595,283.063 125.262,284.063 126.5,286.5C 127.731,285.349 127.731,284.183 126.5,283C 128.774,281.645 128.774,280.145 126.5,278.5 Z"/></g>
<g><path style="opacity:1" fill="#f03131" d="M 273.5,277.5 C 273.5,277.833 273.5,278.167 273.5,278.5C 271.748,278.418 270.748,279.251 270.5,281C 271.742,282.651 272.576,284.485 273,286.5C 273.937,283.976 275.437,282.976 277.5,283.5C 274.109,288.23 270.109,288.73 265.5,285C 266.167,284.333 266.833,283.667 267.5,283C 266.167,281.16 266.334,280.66 268,281.5C 268.875,278.785 270.708,277.452 273.5,277.5 Z"/></g>
<g><path style="opacity:1" fill="#f43231" d="M 117.5,278.5 C 120.167,278.5 122.833,278.5 125.5,278.5C 125.344,282.135 124.178,282.468 122,279.5C 120.086,282.038 118.586,281.705 117.5,278.5 Z"/></g>
<g><path style="opacity:1" fill="#000000" d="M 288.5,278.5 C 290.337,278.639 290.67,279.306 289.5,280.5C 288.702,280.043 288.369,279.376 288.5,278.5 Z"/></g>
<g><path style="opacity:1" fill="#0f0302" d="M 71.5,279.5 C 70.962,281.117 70.6287,282.784 70.5,284.5C 69.661,283.359 68.9943,282.026 68.5,280.5C 69.3937,280.483 70.3937,280.149 71.5,279.5 Z"/></g>
<g><path style="opacity:1" fill="#691919" d="M 87.5,278.5 C 89.9752,278.747 89.9752,279.413 87.5,280.5C 86.537,280.03 86.537,279.363 87.5,278.5 Z"/></g>
<g><path style="opacity:1" fill="#030000" d="M 91.5,279.5 C 92.7879,281.035 92.7879,282.701 91.5,284.5C 91.1928,283.113 91.1928,281.446 91.5,279.5 Z"/></g>
<g><path style="opacity:1" fill="#1a0906" d="M 331.5,278.5 C 330.788,279.739 329.788,280.239 328.5,280C 328.094,278.197 328.594,276.364 330,274.5C 330.41,275.901 330.91,277.234 331.5,278.5 Z"/></g>
<g><path style="opacity:1" fill="#000000" d="M 106.5,281.5 C 106.631,282.376 106.298,283.043 105.5,283.5C 100.354,282.011 100.687,281.344 106.5,281.5 Z"/></g>
<g><path style="opacity:1" fill="#f13131" d="M 255.5,292.5 C 255.351,291.448 255.517,290.448 256,289.5C 258.601,290.726 259.435,290.06 258.5,287.5C 265.217,285.6 267.384,287.933 265,294.5C 263.511,296.332 261.678,297.165 259.5,297C 260.984,295.426 262.651,294.093 264.5,293C 262.598,292.801 261.098,291.967 260,290.5C 258.53,291.267 257.03,291.933 255.5,292.5 Z"/></g>
<g><path style="opacity:1" fill="#ef3131" d="M 134.5,286.5 C 141.633,286.824 141.966,289.157 135.5,293.5C 136.628,294.262 137.795,294.929 139,295.5C 139.667,296.167 139.667,296.833 139,297.5C 133.553,295.621 132.053,291.954 134.5,286.5 Z"/></g>
<g><path style="opacity:1" fill="#200b07" d="M 70.5,284.5 C 73.1313,285.425 73.7979,287.091 72.5,289.5C 71.8925,288.237 71.2258,286.57 70.5,284.5 Z"/></g>
<g><path style="opacity:1" fill="#e32e2e" d="M 141.5,288.5 C 143.085,289.002 143.585,290.002 143,291.5C 142.333,290.167 141.667,290.167 141,291.5C 140.53,290.423 140.697,289.423 141.5,288.5 Z"/></g>
<g><path style="opacity:1" fill="#010000" d="M 321.5,289.5 C 322.649,289.791 323.316,290.624 323.5,292C 322.706,295.122 321.706,295.122 320.5,292C 320.743,291.098 321.077,290.265 321.5,289.5 Z"/></g>
<g><path style="opacity:1" fill="#b32625" d="M 274.5,288.5 C 275.289,288.783 275.956,289.283 276.5,290C 275.234,291.983 273.568,292.983 271.5,293C 271.167,292.667 270.833,292.333 270.5,292C 272.093,291.051 273.426,289.885 274.5,288.5 Z"/></g>
<g><path style="opacity:1" fill="#f43231" d="M 143.5,293.5 C 144.568,292.566 145.901,292.232 147.5,292.5C 147.5,293.5 147.5,294.5 147.5,295.5C 145.801,295.473 144.467,294.806 143.5,293.5 Z"/></g>
<g><path style="opacity:1" fill="#d82c2c" d="M 221.5,293.5 C 222.077,292.227 222.743,292.227 223.5,293.5C 223.03,294.463 222.363,294.463 221.5,293.5 Z"/></g>
<g><path style="opacity:1" fill="#f43131" d="M 148.5,304.5 C 147.993,303.141 146.993,302.141 145.5,301.5C 146,301.167 146.5,300.833 147,300.5C 148.582,302.029 150.415,302.529 152.5,302C 149.833,300.667 149.833,299.333 152.5,298C 151.019,297.02 149.685,295.853 148.5,294.5C 150.47,293.557 151.97,294.224 153,296.5C 153.414,296.043 153.914,295.709 154.5,295.5C 155.624,296.914 156.624,298.414 157.5,300C 155.503,303.495 152.503,304.995 148.5,304.5 Z"/></g>
<g><path style="opacity:1" fill="#040000" d="M 67.5,294.5 C 68.2891,294.783 68.9558,295.283 69.5,296C 68.9103,297.509 68.2436,299.009 67.5,300.5C 66.4808,298.54 66.4808,296.54 67.5,294.5 Z"/></g>
<g><path style="opacity:1" fill="#e42f2f" d="M 255.5,292.5 C 256.609,293.29 257.942,293.79 259.5,294C 258.922,295.417 257.922,296.25 256.5,296.5C 253.336,295.078 250.336,295.578 247.5,298C 250.167,299.333 250.167,300.667 247.5,302C 249.107,302.115 250.607,301.615 252,300.5C 253.03,300.836 253.53,301.503 253.5,302.5C 251.973,302.427 250.973,303.094 250.5,304.5C 246.774,304.426 243.774,302.926 241.5,300C 242.071,298.795 242.738,297.628 243.5,296.5C 245.064,297.186 246.731,297.019 248.5,296C 247.396,294.869 247.729,294.035 249.5,293.5C 250.167,293.833 250.833,294.167 251.5,294.5C 252.524,293.147 253.857,292.48 255.5,292.5 Z"/></g>
<g><path style="opacity:1" fill="#a72423" d="M 267.5,293.5 C 271.308,294.439 271.308,295.772 267.5,297.5C 265.206,296.375 265.206,295.041 267.5,293.5 Z"/></g>
<g><path style="opacity:1" fill="#f33131" d="M 143.5,293.5 C 143.5,294.5 143.5,295.5 143.5,296.5C 145.665,296.116 147.332,296.783 148.5,298.5C 147.413,299.105 146.246,298.772 145,297.5C 144.667,298.5 144.333,299.5 144,300.5C 143.333,299.167 142.667,299.167 142,300.5C 141.626,299.584 141.126,298.75 140.5,298C 143.028,296.983 143.028,295.816 140.5,294.5C 141.325,293.614 142.325,293.281 143.5,293.5 Z"/></g>
<g><path style="opacity:1" fill="#e72f2f" d="M 256.5,296.5 C 256.918,297.222 257.584,297.722 258.5,298C 257.874,298.75 257.374,299.584 257,300.5C 254.974,299.142 252.807,298.309 250.5,298C 252.467,296.786 254.467,296.286 256.5,296.5 Z"/></g>
<g><path style="opacity:1" fill="#9a2822" d="M 80.5,297.5 C 81.8333,298.167 81.8333,298.833 80.5,299.5C 79.1667,298.833 79.1667,298.167 80.5,297.5 Z"/></g>
<g><path style="opacity:1" fill="#c72828" d="M 262.5,298.5 C 263.497,297.287 264.497,297.454 265.5,299C 264.423,299.47 263.423,299.303 262.5,298.5 Z"/></g>
<g><path style="opacity:1" fill="#f13131" d="M 161.5,299.5 C 162.5,299.5 163.5,299.5 164.5,299.5C 164.08,301.674 164.08,303.674 164.5,305.5C 163.5,306.167 162.5,306.833 161.5,307.5C 162.66,307.437 163.994,307.77 165.5,308.5C 166.833,309.167 166.833,309.833 165.5,310.5C 160.054,309.382 157.72,306.049 158.5,300.5C 159.791,300.737 160.791,300.404 161.5,299.5 Z"/></g>
<g><path style="opacity:1" fill="#f33131" d="M 229.5,304.5 C 229.461,303.244 229.961,302.244 231,301.5C 232,301.833 233,302.167 234,302.5C 234.483,301.552 234.649,300.552 234.5,299.5C 240.093,299.889 241.926,302.556 240,307.5C 237.869,309.544 235.369,310.377 232.5,310C 233.629,307.832 235.129,307.332 237,308.5C 239,307.5 239,306.5 237,305.5C 236.086,306.654 235.253,306.487 234.5,305C 234.833,304.667 235.167,304.333 235.5,304C 233.455,303.51 231.455,303.677 229.5,304.5 Z"/></g>
<g><path style="opacity:1" fill="#f43231" d="M 165.5,301.5 C 167.103,301.312 168.437,301.812 169.5,303C 167.537,303.844 166.204,303.344 165.5,301.5 Z"/></g>
<g><path style="opacity:1" fill="#000000" d="M 253.5,302.5 C 253.027,303.906 252.027,304.573 250.5,304.5C 250.973,303.094 251.973,302.427 253.5,302.5 Z"/></g>
<g><path style="opacity:1" fill="#f23131" d="M 221.5,304.5 C 222.386,303.224 223.386,303.224 224.5,304.5C 223.575,305.562 222.575,305.562 221.5,304.5 Z"/></g>
<g><path style="opacity:1" fill="#f13131" d="M 229.5,304.5 C 234.494,306.123 234.494,307.457 229.5,308.5C 231.198,312.029 230.531,312.863 227.5,311C 227.833,310.667 228.167,310.333 228.5,310C 226.833,309.667 225.167,309.333 223.5,309C 224.5,307.333 225.5,305.667 226.5,304C 227.577,303.53 228.577,303.697 229.5,304.5 Z"/></g>
<g><path style="opacity:1" fill="#6c1b18" d="M 246.5,307.5 C 247.833,306.5 249.167,305.5 250.5,304.5C 252.027,304.573 253.027,303.906 253.5,302.5C 256.179,302.327 258.513,301.327 260.5,299.5C 261.308,299.808 261.975,300.308 262.5,301C 258.167,303.5 253.833,306 249.5,308.5C 248.583,307.873 247.583,307.539 246.5,307.5 Z"/></g>
<g><path style="opacity:1" fill="#f43131" d="M 175.5,303.5 C 177.631,305.383 179.964,306.05 182.5,305.5C 184.124,306.869 184.624,308.536 184,310.5C 180.888,313.723 177.388,314.223 173.5,312C 175.657,311.922 177.657,311.755 179.5,311.5C 179.023,310.522 178.357,309.689 177.5,309C 178.167,308.667 178.833,308.333 179.5,308C 177.999,306.748 176.332,305.748 174.5,305C 175.056,304.617 175.389,304.117 175.5,303.5 Z"/></g>
<g><path style="opacity:1" fill="#ee3030" d="M 221.5,304.5 C 220.465,306.205 220.465,307.872 221.5,309.5C 218.403,310.194 218.069,311.194 220.5,312.5C 222.432,311.48 224.432,311.313 226.5,312C 224.68,312.2 223.347,313.034 222.5,314.5C 218.974,313.64 216.307,311.64 214.5,308.5C 215.687,307.481 216.687,306.314 217.5,305C 218.959,305.355 220.293,305.189 221.5,304.5 Z"/></g>
<g><path style="opacity:1" fill="#ea3130" d="M 173.5,306.5 C 172.325,306.281 171.325,306.614 170.5,307.5C 170.624,308.107 170.957,308.44 171.5,308.5C 171.414,309.496 171.748,310.329 172.5,311C 171.584,311.374 170.75,311.874 170,312.5C 168.887,311.24 168.72,310.073 169.5,309C 168.09,308.632 167.09,307.799 166.5,306.5C 168.287,305.684 169.954,304.684 171.5,303.5C 172.919,304.005 173.585,305.005 173.5,306.5 Z"/></g>
<g><path style="opacity:1" fill="#f43131" d="M 190.5,305.5 C 193.468,308.458 193.134,310.958 189.5,313C 190.421,314.756 191.588,314.923 193,313.5C 194.225,313.862 195.391,314.362 196.5,315C 190.668,317.039 187.335,315.039 186.5,309C 187.686,307.588 189.019,306.421 190.5,305.5 Z"/></g>
<g><path style="opacity:1" fill="#ef3131" d="M 209.5,314.5 C 209.19,312.856 208.19,311.856 206.5,311.5C 206.611,310.883 206.944,310.383 207.5,310C 205.941,309.02 204.274,308.187 202.5,307.5C 204.006,306.253 205.506,306.253 207,307.5C 208.081,305.233 209.581,305.066 211.5,307C 213.771,310.03 213.104,312.53 209.5,314.5 Z"/></g>
<g><path style="opacity:1" fill="#000000" d="M 173.5,306.5 C 172.833,307.167 172.167,307.833 171.5,308.5C 170.957,308.44 170.624,308.107 170.5,307.5C 171.325,306.614 172.325,306.281 173.5,306.5 Z"/></g>
<g><path style="opacity:1" fill="#f43231" d="M 173.5,306.5 C 176.199,309.42 175.532,310.087 171.5,308.5C 172.167,307.833 172.833,307.167 173.5,306.5 Z"/></g>
<g><path style="opacity:1" fill="#f33131" d="M 197.5,308.5 C 196.178,308.33 195.011,308.663 194,309.5C 193.517,308.552 193.351,307.552 193.5,306.5C 195.38,306.229 196.713,306.896 197.5,308.5 Z"/></g>
<g><path style="opacity:1" fill="#050000" d="M 229.5,308.5 C 228.244,308.539 227.244,308.039 226.5,307C 227.998,306.415 228.998,306.915 229.5,308.5 Z"/></g>
<g><path style="opacity:1" fill="#a72523" d="M 246.5,307.5 C 247.195,309.437 246.195,310.437 243.5,310.5C 242.805,308.563 243.805,307.563 246.5,307.5 Z"/></g>
<g><path style="opacity:1" fill="#e4302f" d="M 206.5,311.5 C 204.735,312.461 202.735,312.795 200.5,312.5C 201.935,313.985 201.768,315.318 200,316.5C 198.812,315.437 198.312,314.103 198.5,312.5C 197.325,312.719 196.325,312.386 195.5,311.5C 196.193,310.482 196.859,309.482 197.5,308.5C 198.15,308.196 198.817,307.863 199.5,307.5C 201.623,309.31 203.957,310.643 206.5,311.5 Z"/></g>
<g><path style="opacity:1" fill="#000000" d="M 200.5,312.5 C 199.711,312.217 199.044,311.717 198.5,311C 199.816,310.472 200.483,310.972 200.5,312.5 Z"/></g>
<g><path style="opacity:1" fill="#af2725" d="M 243.5,310.5 C 242.07,311.537 240.403,312.204 238.5,312.5C 237.462,310.892 238.129,309.892 240.5,309.5C 241.417,310.127 242.417,310.461 243.5,310.5 Z"/></g>
<g><path style="opacity:1" fill="#3e0e0e" d="M 345.5,308.5 C 345.833,308.5 346.167,308.5 346.5,308.5C 349.274,309.723 351.941,311.223 354.5,313C 350.737,313.079 347.737,311.579 345.5,308.5 Z"/></g>
<g><path style="opacity:1" fill="#f33131" d="M 238.5,312.5 C 237.791,313.404 236.791,313.737 235.5,313.5C 234.537,312.637 234.537,311.97 235.5,311.5C 236.417,312.127 237.417,312.461 238.5,312.5 Z"/></g>
<g><path style="opacity:1" fill="#f43232" d="M 235.5,313.5 C 234.151,314.797 232.818,314.63 231.5,313C 232.819,312.805 234.153,312.972 235.5,313.5 Z"/></g>
<g><path style="opacity:1" fill="#f43231" d="M 209.5,314.5 C 207.372,315.629 205.039,315.796 202.5,315C 204.74,313.193 207.073,313.026 209.5,314.5 Z"/></g>
<g><path style="opacity:1" fill="#f43131" d="M 228.5,315.5 C 228.062,313.036 229.062,312.87 231.5,315C 230.552,315.483 229.552,315.649 228.5,315.5 Z"/></g>
</svg>
